<mxfile host="Electron" modified="2023-12-06T15:11:54.142Z" agent="Mozilla/5.0 (Windows NT 10.0; Win64; x64) AppleWebKit/537.36 (KHTML, like Gecko) draw.io/22.1.2 Chrome/114.0.5735.289 Electron/25.9.4 Safari/537.36" etag="eQwSXMocA9Bj4pp8FMtO" version="22.1.2" type="device">
  <diagram name="Page-1" id="Eg10GGkdxJQghUF50k27">
    <mxGraphModel dx="1658" dy="820" grid="1" gridSize="5" guides="1" tooltips="1" connect="1" arrows="1" fold="1" page="1" pageScale="1" pageWidth="3000" pageHeight="3000" math="0" shadow="0">
      <root>
        <mxCell id="0" />
        <mxCell id="1" parent="0" />
        <mxCell id="Y1rLu_RjyALBYwUzoZZm-6" value="" style="rounded=0;whiteSpace=wrap;html=1;fillColor=#ffe6cc;strokeColor=#d79b00;" parent="1" vertex="1">
          <mxGeometry x="160" y="540" width="40" height="80" as="geometry" />
        </mxCell>
        <mxCell id="Y1rLu_RjyALBYwUzoZZm-7" value="" style="endArrow=classic;html=1;rounded=0;exitX=0.5;exitY=1;exitDx=0;exitDy=0;" parent="1" source="Y1rLu_RjyALBYwUzoZZm-1" edge="1">
          <mxGeometry width="50" height="50" relative="1" as="geometry">
            <mxPoint x="370" y="610" as="sourcePoint" />
            <mxPoint x="160" y="580" as="targetPoint" />
          </mxGeometry>
        </mxCell>
        <mxCell id="Y1rLu_RjyALBYwUzoZZm-8" value="Fetch" style="text;html=1;strokeColor=none;fillColor=none;align=center;verticalAlign=middle;whiteSpace=wrap;rounded=0;fontFamily=Courier New;fontSize=10;" parent="1" vertex="1">
          <mxGeometry x="165" y="572.5" width="30" height="15" as="geometry" />
        </mxCell>
        <mxCell id="Y1rLu_RjyALBYwUzoZZm-11" value="" style="endArrow=classic;html=1;rounded=0;exitX=1;exitY=0.5;exitDx=0;exitDy=0;" parent="1" source="Y1rLu_RjyALBYwUzoZZm-6" edge="1">
          <mxGeometry width="50" height="50" relative="1" as="geometry">
            <mxPoint x="370" y="610" as="sourcePoint" />
            <mxPoint x="240" y="580" as="targetPoint" />
          </mxGeometry>
        </mxCell>
        <mxCell id="Y1rLu_RjyALBYwUzoZZm-12" value="" style="endArrow=classic;html=1;rounded=0;entryX=1;entryY=0.5;entryDx=0;entryDy=0;" parent="1" target="Y1rLu_RjyALBYwUzoZZm-9" edge="1">
          <mxGeometry width="50" height="50" relative="1" as="geometry">
            <mxPoint x="220" y="580" as="sourcePoint" />
            <mxPoint x="420" y="560" as="targetPoint" />
            <Array as="points">
              <mxPoint x="220" y="660" />
            </Array>
          </mxGeometry>
        </mxCell>
        <mxCell id="Y1rLu_RjyALBYwUzoZZm-17" value="" style="triangle;whiteSpace=wrap;html=1;rotation=90;fillColor=#ffe6cc;strokeColor=#d79b00;" parent="1" vertex="1">
          <mxGeometry x="175" y="540" width="10" height="10" as="geometry" />
        </mxCell>
        <mxCell id="Y1rLu_RjyALBYwUzoZZm-20" value="" style="endArrow=classic;html=1;rounded=0;exitX=0;exitY=0.5;exitDx=0;exitDy=0;entryX=0.313;entryY=1;entryDx=0;entryDy=0;entryPerimeter=0;" parent="1" source="Y1rLu_RjyALBYwUzoZZm-9" target="Y1rLu_RjyALBYwUzoZZm-1" edge="1">
          <mxGeometry width="50" height="50" relative="1" as="geometry">
            <mxPoint x="230" y="610" as="sourcePoint" />
            <mxPoint x="280" y="560" as="targetPoint" />
            <Array as="points">
              <mxPoint x="70" y="660" />
              <mxPoint x="70" y="595" />
            </Array>
          </mxGeometry>
        </mxCell>
        <mxCell id="Y1rLu_RjyALBYwUzoZZm-21" value="next_pc" style="text;html=1;strokeColor=none;fillColor=none;align=center;verticalAlign=middle;whiteSpace=wrap;rounded=0;fontFamily=Courier New;fontSize=10;" parent="1" vertex="1">
          <mxGeometry x="115" y="560" width="40" height="20" as="geometry" />
        </mxCell>
        <mxCell id="Y1rLu_RjyALBYwUzoZZm-22" value="pc" style="text;html=1;strokeColor=none;fillColor=none;align=center;verticalAlign=middle;whiteSpace=wrap;rounded=0;fontFamily=Courier New;fontSize=10;" parent="1" vertex="1">
          <mxGeometry x="210" y="560" width="20" height="20" as="geometry" />
        </mxCell>
        <mxCell id="Y1rLu_RjyALBYwUzoZZm-23" value="pc_four" style="text;html=1;strokeColor=none;fillColor=none;align=center;verticalAlign=middle;whiteSpace=wrap;rounded=0;fontFamily=Courier New;fontSize=10;" parent="1" vertex="1">
          <mxGeometry x="110" y="640" width="50" height="20" as="geometry" />
        </mxCell>
        <mxCell id="Y1rLu_RjyALBYwUzoZZm-24" value="" style="endArrow=classic;html=1;rounded=0;exitX=1;exitY=0.5;exitDx=0;exitDy=0;" parent="1" source="Y1rLu_RjyALBYwUzoZZm-18" edge="1">
          <mxGeometry width="50" height="50" relative="1" as="geometry">
            <mxPoint x="230" y="610" as="sourcePoint" />
            <mxPoint x="320" y="580" as="targetPoint" />
          </mxGeometry>
        </mxCell>
        <mxCell id="Y1rLu_RjyALBYwUzoZZm-26" value="" style="endArrow=classic;html=1;rounded=0;entryX=0;entryY=0.75;entryDx=0;entryDy=0;" parent="1" target="Y1rLu_RjyALBYwUzoZZm-25" edge="1">
          <mxGeometry width="50" height="50" relative="1" as="geometry">
            <mxPoint x="220" y="660" as="sourcePoint" />
            <mxPoint x="450" y="560" as="targetPoint" />
          </mxGeometry>
        </mxCell>
        <mxCell id="Y1rLu_RjyALBYwUzoZZm-27" value="" style="endArrow=classic;html=1;rounded=0;entryX=0;entryY=0.938;entryDx=0;entryDy=0;entryPerimeter=0;exitX=0.6;exitY=1;exitDx=0;exitDy=0;exitPerimeter=0;" parent="1" source="Y1rLu_RjyALBYwUzoZZm-23" target="Y1rLu_RjyALBYwUzoZZm-25" edge="1">
          <mxGeometry width="50" height="50" relative="1" as="geometry">
            <mxPoint x="140" y="670" as="sourcePoint" />
            <mxPoint x="310" y="690" as="targetPoint" />
            <Array as="points">
              <mxPoint x="140" y="690" />
            </Array>
          </mxGeometry>
        </mxCell>
        <mxCell id="Y1rLu_RjyALBYwUzoZZm-28" value="instrF" style="text;html=1;strokeColor=none;fillColor=none;align=center;verticalAlign=middle;whiteSpace=wrap;rounded=0;fontFamily=Courier New;fontSize=10;" parent="1" vertex="1">
          <mxGeometry x="280" y="565" width="40" height="15" as="geometry" />
        </mxCell>
        <mxCell id="Y1rLu_RjyALBYwUzoZZm-29" value="" style="triangle;whiteSpace=wrap;html=1;rotation=-90;fillColor=#ffe6cc;strokeColor=#d79b00;" parent="1" vertex="1">
          <mxGeometry x="335" y="690" width="10" height="10" as="geometry" />
        </mxCell>
        <mxCell id="Y1rLu_RjyALBYwUzoZZm-42" value="" style="endArrow=classic;html=1;rounded=0;exitX=1;exitY=0.25;exitDx=0;exitDy=0;" parent="1" source="Y1rLu_RjyALBYwUzoZZm-25" edge="1">
          <mxGeometry width="50" height="50" relative="1" as="geometry">
            <mxPoint x="450" y="685" as="sourcePoint" />
            <mxPoint x="430" y="580" as="targetPoint" />
          </mxGeometry>
        </mxCell>
        <mxCell id="Y1rLu_RjyALBYwUzoZZm-44" value="" style="endArrow=classic;html=1;rounded=0;exitX=1;exitY=0;exitDx=0;exitDy=0;entryX=0;entryY=0.1;entryDx=0;entryDy=0;entryPerimeter=0;" parent="1" source="Y1rLu_RjyALBYwUzoZZm-33" target="Y1rLu_RjyALBYwUzoZZm-43" edge="1">
          <mxGeometry width="50" height="50" relative="1" as="geometry">
            <mxPoint x="530" y="472.5" as="sourcePoint" />
            <mxPoint x="510" y="500" as="targetPoint" />
          </mxGeometry>
        </mxCell>
        <mxCell id="Y1rLu_RjyALBYwUzoZZm-45" value="" style="endArrow=classic;html=1;rounded=0;entryX=0;entryY=0;entryDx=0;entryDy=0;exitX=1;exitY=0.5;exitDx=0;exitDy=0;" parent="1" source="Y1rLu_RjyALBYwUzoZZm-34" edge="1">
          <mxGeometry width="50" height="50" relative="1" as="geometry">
            <mxPoint x="480" y="540" as="sourcePoint" />
            <mxPoint x="520" y="539.52" as="targetPoint" />
          </mxGeometry>
        </mxCell>
        <mxCell id="Y1rLu_RjyALBYwUzoZZm-58" value="" style="endArrow=classic;html=1;rounded=0;entryX=0;entryY=0.5;entryDx=0;entryDy=0;" parent="1" target="Y1rLu_RjyALBYwUzoZZm-38" edge="1">
          <mxGeometry width="50" height="50" relative="1" as="geometry">
            <mxPoint x="400" y="580" as="sourcePoint" />
            <mxPoint x="300" y="440" as="targetPoint" />
            <Array as="points">
              <mxPoint x="400" y="475" />
              <mxPoint x="410" y="475" />
            </Array>
          </mxGeometry>
        </mxCell>
        <mxCell id="Y1rLu_RjyALBYwUzoZZm-69" value="" style="endArrow=classic;html=1;rounded=0;entryX=0;entryY=0.5;entryDx=0;entryDy=0;" parent="1" target="Y1rLu_RjyALBYwUzoZZm-80" edge="1">
          <mxGeometry width="50" height="50" relative="1" as="geometry">
            <mxPoint x="400" y="480" as="sourcePoint" />
            <mxPoint x="420" y="380" as="targetPoint" />
            <Array as="points">
              <mxPoint x="400" y="371" />
            </Array>
          </mxGeometry>
        </mxCell>
        <mxCell id="Y1rLu_RjyALBYwUzoZZm-71" value="instrD" style="text;html=1;strokeColor=none;fillColor=none;align=center;verticalAlign=middle;whiteSpace=wrap;rounded=0;fontFamily=Courier New;fontSize=10;" parent="1" vertex="1">
          <mxGeometry x="360" y="565" width="40" height="15" as="geometry" />
        </mxCell>
        <mxCell id="Y1rLu_RjyALBYwUzoZZm-72" value="" style="endArrow=classic;html=1;rounded=0;exitX=0.003;exitY=0.267;exitDx=0;exitDy=0;exitPerimeter=0;entryX=0;entryY=0.755;entryDx=0;entryDy=0;entryPerimeter=0;" parent="1" source="Y1rLu_RjyALBYwUzoZZm-60" target="Y1rLu_RjyALBYwUzoZZm-68" edge="1">
          <mxGeometry width="50" height="50" relative="1" as="geometry">
            <mxPoint x="410" y="428" as="sourcePoint" />
            <mxPoint x="410" y="350" as="targetPoint" />
            <Array as="points">
              <mxPoint x="390" y="428" />
              <mxPoint x="390" y="351" />
            </Array>
          </mxGeometry>
        </mxCell>
        <mxCell id="Y1rLu_RjyALBYwUzoZZm-73" value="" style="endArrow=classic;html=1;rounded=0;entryX=0;entryY=0.5;entryDx=0;entryDy=0;exitX=-0.006;exitY=0.667;exitDx=0;exitDy=0;exitPerimeter=0;" parent="1" source="Y1rLu_RjyALBYwUzoZZm-60" target="Y1rLu_RjyALBYwUzoZZm-82" edge="1">
          <mxGeometry width="50" height="50" relative="1" as="geometry">
            <mxPoint x="415" y="440" as="sourcePoint" />
            <mxPoint x="410" y="340" as="targetPoint" />
            <Array as="points">
              <mxPoint x="380" y="440" />
              <mxPoint x="380" y="331" />
            </Array>
          </mxGeometry>
        </mxCell>
        <mxCell id="Y1rLu_RjyALBYwUzoZZm-74" value="" style="endArrow=classic;html=1;rounded=0;entryX=0.5;entryY=0;entryDx=0;entryDy=0;exitX=0.5;exitY=1;exitDx=0;exitDy=0;" parent="1" source="Y1rLu_RjyALBYwUzoZZm-68" target="Y1rLu_RjyALBYwUzoZZm-60" edge="1">
          <mxGeometry width="50" height="50" relative="1" as="geometry">
            <mxPoint x="370" y="450" as="sourcePoint" />
            <mxPoint x="420" y="400" as="targetPoint" />
          </mxGeometry>
        </mxCell>
        <mxCell id="Y1rLu_RjyALBYwUzoZZm-75" value="" style="endArrow=classic;html=1;rounded=0;exitX=1;exitY=0.75;exitDx=0;exitDy=0;" parent="1" source="Y1rLu_RjyALBYwUzoZZm-25" edge="1">
          <mxGeometry width="50" height="50" relative="1" as="geometry">
            <mxPoint x="425" y="670" as="sourcePoint" />
            <mxPoint x="720" y="660" as="targetPoint" />
          </mxGeometry>
        </mxCell>
        <mxCell id="Y1rLu_RjyALBYwUzoZZm-76" value="" style="endArrow=classic;html=1;rounded=0;exitX=1;exitY=0.75;exitDx=0;exitDy=0;" parent="1" edge="1">
          <mxGeometry width="50" height="50" relative="1" as="geometry">
            <mxPoint x="360" y="689.77" as="sourcePoint" />
            <mxPoint x="720" y="690" as="targetPoint" />
          </mxGeometry>
        </mxCell>
        <mxCell id="Y1rLu_RjyALBYwUzoZZm-77" value="pc4D" style="text;html=1;strokeColor=none;fillColor=none;align=center;verticalAlign=middle;whiteSpace=wrap;rounded=0;fontFamily=Courier New;fontSize=10;" parent="1" vertex="1">
          <mxGeometry x="360" y="675" width="30" height="15" as="geometry" />
        </mxCell>
        <mxCell id="Y1rLu_RjyALBYwUzoZZm-78" value="pcD" style="text;html=1;strokeColor=none;fillColor=none;align=center;verticalAlign=middle;whiteSpace=wrap;rounded=0;fontFamily=Courier New;fontSize=10;" parent="1" vertex="1">
          <mxGeometry x="360" y="645" width="20" height="15" as="geometry" />
        </mxCell>
        <mxCell id="Y1rLu_RjyALBYwUzoZZm-84" value="" style="endArrow=classic;html=1;rounded=0;entryX=0.5;entryY=0;entryDx=0;entryDy=0;exitX=0.5;exitY=1;exitDx=0;exitDy=0;" parent="1" source="93PRhCsBqD0tyr6pIOzv-167" target="Y1rLu_RjyALBYwUzoZZm-47" edge="1">
          <mxGeometry width="50" height="50" relative="1" as="geometry">
            <mxPoint x="1560" y="490" as="sourcePoint" />
            <mxPoint x="660" y="280" as="targetPoint" />
            <Array as="points">
              <mxPoint x="1560" y="500" />
              <mxPoint x="1560" y="180" />
              <mxPoint x="600" y="180" />
            </Array>
          </mxGeometry>
        </mxCell>
        <mxCell id="Y1rLu_RjyALBYwUzoZZm-85" value="" style="endArrow=classic;html=1;rounded=0;entryX=0.5;entryY=0;entryDx=0;entryDy=0;exitX=1;exitY=0.32;exitDx=0;exitDy=0;exitPerimeter=0;" parent="1" source="93PRhCsBqD0tyr6pIOzv-146" edge="1">
          <mxGeometry width="50" height="50" relative="1" as="geometry">
            <mxPoint x="1480" y="360" as="sourcePoint" />
            <mxPoint x="654.83" y="490" as="targetPoint" />
            <Array as="points">
              <mxPoint x="1540" y="360" />
              <mxPoint x="1540" y="190" />
              <mxPoint x="655" y="190" />
            </Array>
          </mxGeometry>
        </mxCell>
        <mxCell id="Y1rLu_RjyALBYwUzoZZm-86" value="" style="endArrow=classic;html=1;rounded=0;exitX=1;exitY=0.5;exitDx=0;exitDy=0;" parent="1" source="Y1rLu_RjyALBYwUzoZZm-55" edge="1">
          <mxGeometry width="50" height="50" relative="1" as="geometry">
            <mxPoint x="730" y="532.5" as="sourcePoint" />
            <mxPoint x="720" y="540" as="targetPoint" />
          </mxGeometry>
        </mxCell>
        <mxCell id="Y1rLu_RjyALBYwUzoZZm-87" value="" style="endArrow=classic;html=1;rounded=0;exitX=1;exitY=0.5;exitDx=0;exitDy=0;" parent="1" edge="1">
          <mxGeometry width="50" height="50" relative="1" as="geometry">
            <mxPoint x="680" y="579.67" as="sourcePoint" />
            <mxPoint x="720" y="579.67" as="targetPoint" />
          </mxGeometry>
        </mxCell>
        <mxCell id="Y1rLu_RjyALBYwUzoZZm-88" value="" style="endArrow=classic;html=1;rounded=0;entryX=0;entryY=0.36;entryDx=0;entryDy=0;entryPerimeter=0;" parent="1" target="Y1rLu_RjyALBYwUzoZZm-133" edge="1">
          <mxGeometry width="50" height="50" relative="1" as="geometry">
            <mxPoint x="500" y="379.83" as="sourcePoint" />
            <mxPoint x="520" y="379.83" as="targetPoint" />
          </mxGeometry>
        </mxCell>
        <mxCell id="Y1rLu_RjyALBYwUzoZZm-89" value="" style="endArrow=classic;html=1;rounded=0;" parent="1" edge="1">
          <mxGeometry width="50" height="50" relative="1" as="geometry">
            <mxPoint x="500" y="359.83" as="sourcePoint" />
            <mxPoint x="720" y="360" as="targetPoint" />
          </mxGeometry>
        </mxCell>
        <mxCell id="Y1rLu_RjyALBYwUzoZZm-92" value="" style="endArrow=classic;html=1;rounded=0;" parent="1" edge="1">
          <mxGeometry width="50" height="50" relative="1" as="geometry">
            <mxPoint x="500" y="340" as="sourcePoint" />
            <mxPoint x="720" y="340" as="targetPoint" />
          </mxGeometry>
        </mxCell>
        <mxCell id="Y1rLu_RjyALBYwUzoZZm-93" value="" style="endArrow=classic;html=1;rounded=0;" parent="1" edge="1">
          <mxGeometry width="50" height="50" relative="1" as="geometry">
            <mxPoint x="500" y="320" as="sourcePoint" />
            <mxPoint x="720" y="320" as="targetPoint" />
          </mxGeometry>
        </mxCell>
        <mxCell id="Y1rLu_RjyALBYwUzoZZm-94" value="" style="endArrow=classic;html=1;rounded=0;" parent="1" edge="1">
          <mxGeometry width="50" height="50" relative="1" as="geometry">
            <mxPoint x="500" y="299.83" as="sourcePoint" />
            <mxPoint x="720" y="300" as="targetPoint" />
          </mxGeometry>
        </mxCell>
        <mxCell id="Y1rLu_RjyALBYwUzoZZm-95" value="" style="endArrow=classic;html=1;rounded=0;" parent="1" edge="1">
          <mxGeometry width="50" height="50" relative="1" as="geometry">
            <mxPoint x="500" y="279.83" as="sourcePoint" />
            <mxPoint x="720" y="280" as="targetPoint" />
          </mxGeometry>
        </mxCell>
        <mxCell id="Y1rLu_RjyALBYwUzoZZm-96" value="" style="endArrow=classic;html=1;rounded=0;" parent="1" edge="1">
          <mxGeometry width="50" height="50" relative="1" as="geometry">
            <mxPoint x="500" y="260" as="sourcePoint" />
            <mxPoint x="720" y="260" as="targetPoint" />
          </mxGeometry>
        </mxCell>
        <mxCell id="Y1rLu_RjyALBYwUzoZZm-97" value="" style="endArrow=classic;html=1;rounded=0;" parent="1" edge="1">
          <mxGeometry width="50" height="50" relative="1" as="geometry">
            <mxPoint x="500" y="240" as="sourcePoint" />
            <mxPoint x="720" y="240" as="targetPoint" />
          </mxGeometry>
        </mxCell>
        <mxCell id="Y1rLu_RjyALBYwUzoZZm-98" value="" style="endArrow=classic;html=1;rounded=0;" parent="1" edge="1">
          <mxGeometry width="50" height="50" relative="1" as="geometry">
            <mxPoint x="500" y="220" as="sourcePoint" />
            <mxPoint x="720" y="220" as="targetPoint" />
          </mxGeometry>
        </mxCell>
        <mxCell id="Y1rLu_RjyALBYwUzoZZm-99" value="" style="endArrow=classic;html=1;rounded=0;" parent="1" edge="1">
          <mxGeometry width="50" height="50" relative="1" as="geometry">
            <mxPoint x="500" y="479.83" as="sourcePoint" />
            <mxPoint x="720" y="480" as="targetPoint" />
          </mxGeometry>
        </mxCell>
        <mxCell id="Y1rLu_RjyALBYwUzoZZm-100" value="" style="endArrow=classic;html=1;rounded=0;entryX=0;entryY=0.1;entryDx=0;entryDy=0;entryPerimeter=0;" parent="1" edge="1">
          <mxGeometry width="50" height="50" relative="1" as="geometry">
            <mxPoint x="500" y="500" as="sourcePoint" />
            <mxPoint x="720" y="599.6" as="targetPoint" />
            <Array as="points">
              <mxPoint x="500" y="600" />
            </Array>
          </mxGeometry>
        </mxCell>
        <mxCell id="Y1rLu_RjyALBYwUzoZZm-101" value="" style="endArrow=classic;html=1;rounded=0;entryX=0;entryY=0;entryDx=0;entryDy=0;" parent="1" edge="1">
          <mxGeometry width="50" height="50" relative="1" as="geometry">
            <mxPoint x="490" y="540" as="sourcePoint" />
            <mxPoint x="720" y="619.6" as="targetPoint" />
            <Array as="points">
              <mxPoint x="490" y="620" />
            </Array>
          </mxGeometry>
        </mxCell>
        <mxCell id="Y1rLu_RjyALBYwUzoZZm-102" value="" style="endArrow=classic;html=1;rounded=0;entryX=0;entryY=0;entryDx=0;entryDy=0;exitX=1;exitY=0.889;exitDx=0;exitDy=0;exitPerimeter=0;" parent="1" source="Y1rLu_RjyALBYwUzoZZm-33" edge="1">
          <mxGeometry width="50" height="50" relative="1" as="geometry">
            <mxPoint x="480" y="580" as="sourcePoint" />
            <mxPoint x="720" y="640" as="targetPoint" />
            <Array as="points">
              <mxPoint x="480" y="580" />
              <mxPoint x="480" y="640" />
            </Array>
          </mxGeometry>
        </mxCell>
        <mxCell id="Y1rLu_RjyALBYwUzoZZm-104" value="" style="ellipse;whiteSpace=wrap;html=1;fillColor=#000000;aspect=fixed;" parent="1" vertex="1">
          <mxGeometry x="498" y="498" width="4" height="4" as="geometry" />
        </mxCell>
        <mxCell id="Y1rLu_RjyALBYwUzoZZm-105" value="" style="ellipse;whiteSpace=wrap;html=1;fillColor=#000000;aspect=fixed;" parent="1" vertex="1">
          <mxGeometry x="488" y="538" width="4" height="4" as="geometry" />
        </mxCell>
        <mxCell id="Y1rLu_RjyALBYwUzoZZm-109" value="" style="endArrow=classic;html=1;rounded=0;entryX=0.25;entryY=0;entryDx=0;entryDy=0;" parent="1" target="ZzyhjnianzOxExWq9pqv-9" edge="1">
          <mxGeometry width="50" height="50" relative="1" as="geometry">
            <mxPoint x="690" y="540" as="sourcePoint" />
            <mxPoint x="660" y="440" as="targetPoint" />
            <Array as="points">
              <mxPoint x="690" y="445" />
            </Array>
          </mxGeometry>
        </mxCell>
        <mxCell id="Y1rLu_RjyALBYwUzoZZm-111" value="" style="ellipse;whiteSpace=wrap;html=1;fillColor=#000000;aspect=fixed;" parent="1" vertex="1">
          <mxGeometry x="688" y="538" width="4" height="4" as="geometry" />
        </mxCell>
        <mxCell id="Y1rLu_RjyALBYwUzoZZm-112" value="" style="endArrow=classic;html=1;rounded=0;entryX=0.25;entryY=0;entryDx=0;entryDy=0;" parent="1" target="ZzyhjnianzOxExWq9pqv-4" edge="1">
          <mxGeometry width="50" height="50" relative="1" as="geometry">
            <mxPoint x="700" y="580" as="sourcePoint" />
            <mxPoint x="660" y="430" as="targetPoint" />
            <Array as="points">
              <mxPoint x="700" y="410" />
            </Array>
          </mxGeometry>
        </mxCell>
        <mxCell id="Y1rLu_RjyALBYwUzoZZm-113" value="" style="ellipse;whiteSpace=wrap;html=1;fillColor=#000000;aspect=fixed;" parent="1" vertex="1">
          <mxGeometry x="698" y="578" width="4" height="4" as="geometry" />
        </mxCell>
        <mxCell id="Y1rLu_RjyALBYwUzoZZm-114" value="immD" style="text;html=1;strokeColor=none;fillColor=none;align=center;verticalAlign=middle;whiteSpace=wrap;rounded=0;fontFamily=Courier New;fontSize=10;" parent="1" vertex="1">
          <mxGeometry x="500" y="465" width="30" height="15" as="geometry" />
        </mxCell>
        <mxCell id="Y1rLu_RjyALBYwUzoZZm-115" value="" style="ellipse;whiteSpace=wrap;html=1;fillColor=#000000;aspect=fixed;" parent="1" vertex="1">
          <mxGeometry x="398" y="473" width="4" height="4" as="geometry" />
        </mxCell>
        <mxCell id="Y1rLu_RjyALBYwUzoZZm-116" value="" style="ellipse;whiteSpace=wrap;html=1;fillColor=#000000;aspect=fixed;" parent="1" vertex="1">
          <mxGeometry x="398" y="578" width="4" height="4" as="geometry" />
        </mxCell>
        <mxCell id="Y1rLu_RjyALBYwUzoZZm-117" value="" style="ellipse;whiteSpace=wrap;html=1;fillColor=#000000;aspect=fixed;" parent="1" vertex="1">
          <mxGeometry x="218" y="578" width="4" height="4" as="geometry" />
        </mxCell>
        <mxCell id="Y1rLu_RjyALBYwUzoZZm-118" value="" style="ellipse;whiteSpace=wrap;html=1;fillColor=#000000;aspect=fixed;" parent="1" vertex="1">
          <mxGeometry x="218" y="658" width="4" height="4" as="geometry" />
        </mxCell>
        <mxCell id="Y1rLu_RjyALBYwUzoZZm-119" value="" style="ellipse;whiteSpace=wrap;html=1;fillColor=#000000;aspect=fixed;" parent="1" vertex="1">
          <mxGeometry x="138" y="658" width="4" height="4" as="geometry" />
        </mxCell>
        <mxCell id="Y1rLu_RjyALBYwUzoZZm-120" value="br_sel" style="text;html=1;strokeColor=none;fillColor=none;align=center;verticalAlign=middle;whiteSpace=wrap;rounded=0;fontFamily=Courier New;fontSize=10;" parent="1" vertex="1">
          <mxGeometry x="500" y="369" width="40" height="8" as="geometry" />
        </mxCell>
        <mxCell id="Y1rLu_RjyALBYwUzoZZm-121" value="rd_wren" style="text;html=1;strokeColor=none;fillColor=none;align=center;verticalAlign=middle;whiteSpace=wrap;rounded=0;fontFamily=Courier New;fontSize=10;" parent="1" vertex="1">
          <mxGeometry x="500" y="349" width="47" height="8" as="geometry" />
        </mxCell>
        <mxCell id="Y1rLu_RjyALBYwUzoZZm-122" value="op_a_sel" style="text;html=1;strokeColor=none;fillColor=none;align=center;verticalAlign=middle;whiteSpace=wrap;rounded=0;fontFamily=Courier New;fontSize=10;" parent="1" vertex="1">
          <mxGeometry x="500" y="329" width="50" height="8" as="geometry" />
        </mxCell>
        <mxCell id="Y1rLu_RjyALBYwUzoZZm-123" value="op_b_sel" style="text;html=1;strokeColor=none;fillColor=none;align=center;verticalAlign=middle;whiteSpace=wrap;rounded=0;fontFamily=Courier New;fontSize=10;" parent="1" vertex="1">
          <mxGeometry x="500" y="309" width="50" height="8" as="geometry" />
        </mxCell>
        <mxCell id="Y1rLu_RjyALBYwUzoZZm-124" value="alu_op" style="text;html=1;strokeColor=none;fillColor=none;align=center;verticalAlign=middle;whiteSpace=wrap;rounded=0;fontFamily=Courier New;fontSize=10;" parent="1" vertex="1">
          <mxGeometry x="500" y="289" width="38" height="8" as="geometry" />
        </mxCell>
        <mxCell id="Y1rLu_RjyALBYwUzoZZm-125" value="byte_en" style="text;html=1;strokeColor=none;fillColor=none;align=center;verticalAlign=middle;whiteSpace=wrap;rounded=0;fontFamily=Courier New;fontSize=10;" parent="1" vertex="1">
          <mxGeometry x="500" y="269" width="50" height="8" as="geometry" />
        </mxCell>
        <mxCell id="Y1rLu_RjyALBYwUzoZZm-126" value="mem_wren" style="text;html=1;strokeColor=none;fillColor=none;align=center;verticalAlign=middle;whiteSpace=wrap;rounded=0;fontFamily=Courier New;fontSize=10;" parent="1" vertex="1">
          <mxGeometry x="500" y="249" width="50" height="8" as="geometry" />
        </mxCell>
        <mxCell id="Y1rLu_RjyALBYwUzoZZm-127" value="ld_sel" style="text;html=1;strokeColor=none;fillColor=none;align=center;verticalAlign=middle;whiteSpace=wrap;rounded=0;fontFamily=Courier New;fontSize=10;" parent="1" vertex="1">
          <mxGeometry x="500" y="229" width="38" height="8" as="geometry" />
        </mxCell>
        <mxCell id="Y1rLu_RjyALBYwUzoZZm-128" value="wb_sel" style="text;html=1;strokeColor=none;fillColor=none;align=center;verticalAlign=middle;whiteSpace=wrap;rounded=0;fontFamily=Courier New;fontSize=10;" parent="1" vertex="1">
          <mxGeometry x="500" y="209" width="38" height="8" as="geometry" />
        </mxCell>
        <mxCell id="Y1rLu_RjyALBYwUzoZZm-131" value="" style="ellipse;whiteSpace=wrap;html=1;" parent="1" vertex="1">
          <mxGeometry x="597" y="591" width="6" height="6" as="geometry" />
        </mxCell>
        <mxCell id="Y1rLu_RjyALBYwUzoZZm-134" value="" style="triangle;whiteSpace=wrap;html=1;rotation=-90;fillColor=#ffe6cc;strokeColor=#d79b00;" parent="1" vertex="1">
          <mxGeometry x="735" y="690" width="10" height="10" as="geometry" />
        </mxCell>
        <mxCell id="93PRhCsBqD0tyr6pIOzv-14" value="" style="endArrow=classic;html=1;rounded=0;" parent="1" edge="1">
          <mxGeometry width="50" height="50" relative="1" as="geometry">
            <mxPoint x="760" y="660" as="sourcePoint" />
            <mxPoint x="940" y="435" as="targetPoint" />
            <Array as="points">
              <mxPoint x="830" y="660" />
              <mxPoint x="830" y="435" />
            </Array>
          </mxGeometry>
        </mxCell>
        <mxCell id="93PRhCsBqD0tyr6pIOzv-15" value="" style="endArrow=classic;html=1;rounded=0;entryX=0;entryY=0.98;entryDx=0;entryDy=0;entryPerimeter=0;" parent="1" target="93PRhCsBqD0tyr6pIOzv-56" edge="1">
          <mxGeometry width="50" height="50" relative="1" as="geometry">
            <mxPoint x="760" y="690" as="sourcePoint" />
            <mxPoint x="800" y="690" as="targetPoint" />
          </mxGeometry>
        </mxCell>
        <mxCell id="93PRhCsBqD0tyr6pIOzv-16" value="pcE" style="text;html=1;strokeColor=none;fillColor=none;align=center;verticalAlign=middle;whiteSpace=wrap;rounded=0;fontFamily=Courier New;fontSize=10;" parent="1" vertex="1">
          <mxGeometry x="760" y="645" width="20" height="15" as="geometry" />
        </mxCell>
        <mxCell id="93PRhCsBqD0tyr6pIOzv-17" value="pc4E" style="text;html=1;strokeColor=none;fillColor=none;align=center;verticalAlign=middle;whiteSpace=wrap;rounded=0;fontFamily=Courier New;fontSize=10;" parent="1" vertex="1">
          <mxGeometry x="760" y="675" width="30" height="15" as="geometry" />
        </mxCell>
        <mxCell id="93PRhCsBqD0tyr6pIOzv-21" value="immE" style="text;html=1;strokeColor=none;fillColor=none;align=center;verticalAlign=middle;whiteSpace=wrap;rounded=0;fontFamily=Courier New;fontSize=10;" parent="1" vertex="1">
          <mxGeometry x="760" y="465" width="30" height="15" as="geometry" />
        </mxCell>
        <mxCell id="93PRhCsBqD0tyr6pIOzv-22" value="" style="endArrow=classic;html=1;rounded=0;exitX=1;exitY=0.56;exitDx=0;exitDy=0;exitPerimeter=0;entryX=0.162;entryY=1;entryDx=0;entryDy=0;entryPerimeter=0;" parent="1" source="Y1rLu_RjyALBYwUzoZZm-133" target="93PRhCsBqD0tyr6pIOzv-11" edge="1">
          <mxGeometry width="50" height="50" relative="1" as="geometry">
            <mxPoint x="770" y="480" as="sourcePoint" />
            <mxPoint x="975" y="535" as="targetPoint" />
            <Array as="points">
              <mxPoint x="840" y="480" />
              <mxPoint x="840" y="545" />
              <mxPoint x="950" y="545" />
            </Array>
          </mxGeometry>
        </mxCell>
        <mxCell id="93PRhCsBqD0tyr6pIOzv-23" value="" style="endArrow=classic;html=1;rounded=0;entryX=0.8;entryY=1.001;entryDx=0;entryDy=0;entryPerimeter=0;" parent="1" target="cbddjr-EKUgRZxBoKyHE-14" edge="1">
          <mxGeometry width="50" height="50" relative="1" as="geometry">
            <mxPoint x="760" y="580" as="sourcePoint" />
            <mxPoint x="940" y="505" as="targetPoint" />
            <Array as="points">
              <mxPoint x="860" y="580" />
              <mxPoint x="860" y="500" />
            </Array>
          </mxGeometry>
        </mxCell>
        <mxCell id="93PRhCsBqD0tyr6pIOzv-24" value="" style="endArrow=classic;html=1;rounded=0;entryX=0.75;entryY=0;entryDx=0;entryDy=0;" parent="1" target="cbddjr-EKUgRZxBoKyHE-2" edge="1">
          <mxGeometry width="50" height="50" relative="1" as="geometry">
            <mxPoint x="760" y="540" as="sourcePoint" />
            <mxPoint x="840" y="470" as="targetPoint" />
            <Array as="points">
              <mxPoint x="850" y="540" />
              <mxPoint x="850" y="455" />
            </Array>
          </mxGeometry>
        </mxCell>
        <mxCell id="93PRhCsBqD0tyr6pIOzv-25" value="rs2_dataE" style="text;html=1;strokeColor=none;fillColor=none;align=center;verticalAlign=middle;whiteSpace=wrap;rounded=0;fontFamily=Courier New;fontSize=10;" parent="1" vertex="1">
          <mxGeometry x="760" y="565" width="60" height="15" as="geometry" />
        </mxCell>
        <mxCell id="93PRhCsBqD0tyr6pIOzv-27" value="rs1_dataE" style="text;html=1;strokeColor=none;fillColor=none;align=center;verticalAlign=middle;whiteSpace=wrap;rounded=0;fontFamily=Courier New;fontSize=10;" parent="1" vertex="1">
          <mxGeometry x="760" y="525" width="60" height="15" as="geometry" />
        </mxCell>
        <mxCell id="93PRhCsBqD0tyr6pIOzv-29" value="" style="group" parent="1" vertex="1" connectable="0">
          <mxGeometry x="1040" y="430" width="115" height="200" as="geometry" />
        </mxCell>
        <mxCell id="93PRhCsBqD0tyr6pIOzv-18" value="" style="shape=trapezoid;perimeter=trapezoidPerimeter;whiteSpace=wrap;html=1;fixedSize=1;rotation=90;" parent="93PRhCsBqD0tyr6pIOzv-29" vertex="1">
          <mxGeometry x="-30" y="30" width="120" height="60" as="geometry" />
        </mxCell>
        <mxCell id="93PRhCsBqD0tyr6pIOzv-28" value="ALU" style="text;html=1;strokeColor=none;fillColor=none;align=center;verticalAlign=middle;whiteSpace=wrap;rounded=0;fontFamily=Courier New;fontSize=20;" parent="93PRhCsBqD0tyr6pIOzv-29" vertex="1">
          <mxGeometry x="12.5" y="50" width="35" height="20" as="geometry" />
        </mxCell>
        <mxCell id="8uZCJso9WEqKBJ1qdxWW-4" value="forward2out" style="text;html=1;strokeColor=none;fillColor=none;align=center;verticalAlign=middle;whiteSpace=wrap;rounded=0;fontFamily=Courier New;fontSize=10;" parent="93PRhCsBqD0tyr6pIOzv-29" vertex="1">
          <mxGeometry x="20" y="118" width="67.5" height="12" as="geometry" />
        </mxCell>
        <mxCell id="93PRhCsBqD0tyr6pIOzv-30" value="" style="group" parent="1" vertex="1" connectable="0">
          <mxGeometry x="940" y="410" width="20" height="80" as="geometry" />
        </mxCell>
        <mxCell id="93PRhCsBqD0tyr6pIOzv-5" value="" style="verticalLabelPosition=middle;verticalAlign=middle;html=1;shape=trapezoid;perimeter=trapezoidPerimeter;whiteSpace=wrap;size=0.23;arcSize=10;flipV=1;labelPosition=center;align=center;rotation=-90;" parent="93PRhCsBqD0tyr6pIOzv-30" vertex="1">
          <mxGeometry x="-30" y="30" width="80" height="20" as="geometry" />
        </mxCell>
        <mxCell id="93PRhCsBqD0tyr6pIOzv-6" value="0" style="text;html=1;strokeColor=none;fillColor=none;align=center;verticalAlign=middle;whiteSpace=wrap;rounded=0;fontFamily=Courier New;fontSize=20;" parent="93PRhCsBqD0tyr6pIOzv-30" vertex="1">
          <mxGeometry x="5" y="40" width="10" height="30" as="geometry" />
        </mxCell>
        <mxCell id="93PRhCsBqD0tyr6pIOzv-7" value="1" style="text;html=1;strokeColor=none;fillColor=none;align=center;verticalAlign=middle;whiteSpace=wrap;rounded=0;fontFamily=Courier New;fontSize=20;" parent="93PRhCsBqD0tyr6pIOzv-30" vertex="1">
          <mxGeometry x="5" y="10" width="10" height="30" as="geometry" />
        </mxCell>
        <mxCell id="93PRhCsBqD0tyr6pIOzv-31" value="" style="group" parent="1" vertex="1" connectable="0">
          <mxGeometry x="980" y="478" width="20" height="80" as="geometry" />
        </mxCell>
        <mxCell id="93PRhCsBqD0tyr6pIOzv-11" value="" style="verticalLabelPosition=middle;verticalAlign=middle;html=1;shape=trapezoid;perimeter=trapezoidPerimeter;whiteSpace=wrap;size=0.23;arcSize=10;flipV=1;labelPosition=center;align=center;rotation=-90;" parent="93PRhCsBqD0tyr6pIOzv-31" vertex="1">
          <mxGeometry x="-30" y="30" width="80" height="20" as="geometry" />
        </mxCell>
        <mxCell id="93PRhCsBqD0tyr6pIOzv-12" value="1" style="text;html=1;strokeColor=none;fillColor=none;align=center;verticalAlign=middle;whiteSpace=wrap;rounded=0;fontFamily=Courier New;fontSize=20;" parent="93PRhCsBqD0tyr6pIOzv-31" vertex="1">
          <mxGeometry x="4" y="40" width="10" height="30" as="geometry" />
        </mxCell>
        <mxCell id="93PRhCsBqD0tyr6pIOzv-13" value="0" style="text;html=1;strokeColor=none;fillColor=none;align=center;verticalAlign=middle;whiteSpace=wrap;rounded=0;fontFamily=Courier New;fontSize=20;" parent="93PRhCsBqD0tyr6pIOzv-31" vertex="1">
          <mxGeometry x="4" y="10" width="10" height="30" as="geometry" />
        </mxCell>
        <mxCell id="93PRhCsBqD0tyr6pIOzv-33" value="" style="group" parent="1" vertex="1" connectable="0">
          <mxGeometry x="90" y="540" width="20" height="80" as="geometry" />
        </mxCell>
        <mxCell id="Y1rLu_RjyALBYwUzoZZm-1" value="" style="verticalLabelPosition=middle;verticalAlign=middle;html=1;shape=trapezoid;perimeter=trapezoidPerimeter;whiteSpace=wrap;size=0.23;arcSize=10;flipV=1;labelPosition=center;align=center;rotation=-90;" parent="93PRhCsBqD0tyr6pIOzv-33" vertex="1">
          <mxGeometry x="-30" y="30" width="80" height="20" as="geometry" />
        </mxCell>
        <mxCell id="Y1rLu_RjyALBYwUzoZZm-2" value="0" style="text;html=1;strokeColor=none;fillColor=none;align=center;verticalAlign=middle;whiteSpace=wrap;rounded=0;fontFamily=Courier New;fontSize=20;" parent="93PRhCsBqD0tyr6pIOzv-33" vertex="1">
          <mxGeometry x="5" y="40" width="10" height="30" as="geometry" />
        </mxCell>
        <mxCell id="Y1rLu_RjyALBYwUzoZZm-3" value="1" style="text;html=1;strokeColor=none;fillColor=none;align=center;verticalAlign=middle;whiteSpace=wrap;rounded=0;fontFamily=Courier New;fontSize=20;" parent="93PRhCsBqD0tyr6pIOzv-33" vertex="1">
          <mxGeometry x="5" y="10" width="10" height="30" as="geometry" />
        </mxCell>
        <mxCell id="93PRhCsBqD0tyr6pIOzv-34" value="" style="group" parent="1" vertex="1" connectable="0">
          <mxGeometry x="420" y="200" width="80" height="200" as="geometry" />
        </mxCell>
        <mxCell id="Y1rLu_RjyALBYwUzoZZm-68" value="" style="rounded=0;whiteSpace=wrap;html=1;fillColor=#f8cecc;strokeColor=#b85450;" parent="93PRhCsBqD0tyr6pIOzv-34" vertex="1">
          <mxGeometry width="80" height="200" as="geometry" />
        </mxCell>
        <mxCell id="Y1rLu_RjyALBYwUzoZZm-70" value="Control&lt;br style=&quot;font-size: 18px;&quot;&gt;Unit" style="text;html=1;strokeColor=none;fillColor=none;align=center;verticalAlign=middle;whiteSpace=wrap;rounded=0;fontFamily=Courier New;fontSize=18;" parent="93PRhCsBqD0tyr6pIOzv-34" vertex="1">
          <mxGeometry y="80" width="80" height="40" as="geometry" />
        </mxCell>
        <mxCell id="Y1rLu_RjyALBYwUzoZZm-79" value="br_unsigned" style="text;html=1;strokeColor=none;fillColor=none;align=center;verticalAlign=middle;whiteSpace=wrap;rounded=0;fontFamily=Courier New;fontSize=10;" parent="93PRhCsBqD0tyr6pIOzv-34" vertex="1">
          <mxGeometry x="5" y="185" width="70" height="15" as="geometry" />
        </mxCell>
        <mxCell id="Y1rLu_RjyALBYwUzoZZm-80" value="instr" style="text;html=1;strokeColor=none;fillColor=none;align=center;verticalAlign=middle;whiteSpace=wrap;rounded=0;fontFamily=Courier New;fontSize=10;" parent="93PRhCsBqD0tyr6pIOzv-34" vertex="1">
          <mxGeometry y="166" width="30" height="10" as="geometry" />
        </mxCell>
        <mxCell id="Y1rLu_RjyALBYwUzoZZm-81" value="br_less" style="text;html=1;strokeColor=none;fillColor=none;align=center;verticalAlign=middle;whiteSpace=wrap;rounded=0;fontFamily=Courier New;fontSize=10;" parent="93PRhCsBqD0tyr6pIOzv-34" vertex="1">
          <mxGeometry x="2" y="146" width="40" height="10" as="geometry" />
        </mxCell>
        <mxCell id="Y1rLu_RjyALBYwUzoZZm-82" value="br_equal" style="text;html=1;strokeColor=none;fillColor=none;align=center;verticalAlign=middle;whiteSpace=wrap;rounded=0;fontFamily=Courier New;fontSize=10;" parent="93PRhCsBqD0tyr6pIOzv-34" vertex="1">
          <mxGeometry y="126" width="50" height="10" as="geometry" />
        </mxCell>
        <mxCell id="93PRhCsBqD0tyr6pIOzv-35" value="" style="group" parent="1" vertex="1" connectable="0">
          <mxGeometry x="420" y="420" width="80" height="30" as="geometry" />
        </mxCell>
        <mxCell id="Y1rLu_RjyALBYwUzoZZm-60" value="" style="rounded=0;whiteSpace=wrap;html=1;fillColor=#fff2cc;strokeColor=#d6b656;" parent="93PRhCsBqD0tyr6pIOzv-35" vertex="1">
          <mxGeometry width="80" height="30" as="geometry" />
        </mxCell>
        <mxCell id="Y1rLu_RjyALBYwUzoZZm-61" value="brComp" style="text;html=1;strokeColor=none;fillColor=none;align=center;verticalAlign=middle;whiteSpace=wrap;rounded=0;fontFamily=Courier New;fontSize=20;" parent="93PRhCsBqD0tyr6pIOzv-35" vertex="1">
          <mxGeometry x="5" y="7.5" width="70" height="15" as="geometry" />
        </mxCell>
        <mxCell id="93PRhCsBqD0tyr6pIOzv-36" value="" style="group" parent="1" vertex="1" connectable="0">
          <mxGeometry x="420" y="460" width="80" height="30" as="geometry" />
        </mxCell>
        <mxCell id="Y1rLu_RjyALBYwUzoZZm-38" value="" style="rounded=0;whiteSpace=wrap;html=1;fillColor=#d5e8d4;strokeColor=#82b366;" parent="93PRhCsBqD0tyr6pIOzv-36" vertex="1">
          <mxGeometry width="80" height="30" as="geometry" />
        </mxCell>
        <mxCell id="Y1rLu_RjyALBYwUzoZZm-39" value="immGen" style="text;html=1;strokeColor=none;fillColor=none;align=center;verticalAlign=middle;whiteSpace=wrap;rounded=0;fontFamily=Courier New;fontSize=20;" parent="93PRhCsBqD0tyr6pIOzv-36" vertex="1">
          <mxGeometry x="5" y="7.5" width="70" height="15" as="geometry" />
        </mxCell>
        <mxCell id="93PRhCsBqD0tyr6pIOzv-37" value="" style="group" parent="1" vertex="1" connectable="0">
          <mxGeometry x="520" y="490" width="160" height="100" as="geometry" />
        </mxCell>
        <mxCell id="Y1rLu_RjyALBYwUzoZZm-43" value="" style="rounded=0;whiteSpace=wrap;html=1;fillColor=#e1d5e7;strokeColor=#9673a6;" parent="93PRhCsBqD0tyr6pIOzv-37" vertex="1">
          <mxGeometry width="160" height="100" as="geometry" />
        </mxCell>
        <mxCell id="Y1rLu_RjyALBYwUzoZZm-47" value="rd_data" style="text;html=1;strokeColor=none;fillColor=none;align=center;verticalAlign=middle;whiteSpace=wrap;rounded=0;fontFamily=Courier New;fontSize=10;" parent="93PRhCsBqD0tyr6pIOzv-37" vertex="1">
          <mxGeometry x="60" width="40" height="15" as="geometry" />
        </mxCell>
        <mxCell id="Y1rLu_RjyALBYwUzoZZm-48" value="rs1_addr" style="text;html=1;strokeColor=none;fillColor=none;align=center;verticalAlign=middle;whiteSpace=wrap;rounded=0;fontFamily=Courier New;fontSize=10;" parent="93PRhCsBqD0tyr6pIOzv-37" vertex="1">
          <mxGeometry width="50" height="15" as="geometry" />
        </mxCell>
        <mxCell id="Y1rLu_RjyALBYwUzoZZm-49" value="rs2_addr" style="text;html=1;strokeColor=none;fillColor=none;align=center;verticalAlign=middle;whiteSpace=wrap;rounded=0;fontFamily=Courier New;fontSize=10;" parent="93PRhCsBqD0tyr6pIOzv-37" vertex="1">
          <mxGeometry y="42.5" width="50" height="15" as="geometry" />
        </mxCell>
        <mxCell id="Y1rLu_RjyALBYwUzoZZm-50" value="rd_addr" style="text;html=1;strokeColor=none;fillColor=none;align=center;verticalAlign=middle;whiteSpace=wrap;rounded=0;fontFamily=Courier New;fontSize=10;" parent="93PRhCsBqD0tyr6pIOzv-37" vertex="1">
          <mxGeometry x="5" y="82.5" width="40" height="15" as="geometry" />
        </mxCell>
        <mxCell id="Y1rLu_RjyALBYwUzoZZm-51" value="Regfile" style="text;html=1;strokeColor=none;fillColor=none;align=center;verticalAlign=middle;whiteSpace=wrap;rounded=0;fontFamily=Courier New;fontSize=15;" parent="93PRhCsBqD0tyr6pIOzv-37" vertex="1">
          <mxGeometry x="47.5" y="22.5" width="65" height="20" as="geometry" />
        </mxCell>
        <mxCell id="Y1rLu_RjyALBYwUzoZZm-54" value="rd_wren" style="text;html=1;strokeColor=none;fillColor=none;align=center;verticalAlign=middle;whiteSpace=wrap;rounded=0;fontFamily=Courier New;fontSize=10;" parent="93PRhCsBqD0tyr6pIOzv-37" vertex="1">
          <mxGeometry x="110" width="50" height="15" as="geometry" />
        </mxCell>
        <mxCell id="Y1rLu_RjyALBYwUzoZZm-55" value="rs1_data" style="text;html=1;strokeColor=none;fillColor=none;align=center;verticalAlign=middle;whiteSpace=wrap;rounded=0;fontFamily=Courier New;fontSize=10;" parent="93PRhCsBqD0tyr6pIOzv-37" vertex="1">
          <mxGeometry x="110" y="42.5" width="50" height="15" as="geometry" />
        </mxCell>
        <mxCell id="Y1rLu_RjyALBYwUzoZZm-56" value="rs2_data" style="text;html=1;strokeColor=none;fillColor=none;align=center;verticalAlign=middle;whiteSpace=wrap;rounded=0;fontFamily=Courier New;fontSize=10;" parent="93PRhCsBqD0tyr6pIOzv-37" vertex="1">
          <mxGeometry x="110" y="82.5" width="50" height="15" as="geometry" />
        </mxCell>
        <mxCell id="Y1rLu_RjyALBYwUzoZZm-129" value="" style="triangle;whiteSpace=wrap;html=1;rotation=-90;fillColor=#e1d5e7;strokeColor=#9673a6;" parent="93PRhCsBqD0tyr6pIOzv-37" vertex="1">
          <mxGeometry x="75" y="90" width="10" height="10" as="geometry" />
        </mxCell>
        <mxCell id="93PRhCsBqD0tyr6pIOzv-38" value="" style="group" parent="1" vertex="1" connectable="0">
          <mxGeometry x="430" y="500" width="40" height="90" as="geometry" />
        </mxCell>
        <mxCell id="Y1rLu_RjyALBYwUzoZZm-33" value="" style="rounded=0;whiteSpace=wrap;html=1;fillColor=#f5f5f5;fontColor=#333333;strokeColor=#666666;" parent="93PRhCsBqD0tyr6pIOzv-38" vertex="1">
          <mxGeometry width="40" height="90" as="geometry" />
        </mxCell>
        <mxCell id="Y1rLu_RjyALBYwUzoZZm-34" value="Reg&lt;br&gt;Dec" style="text;html=1;strokeColor=none;fillColor=none;align=center;verticalAlign=middle;whiteSpace=wrap;rounded=0;fontFamily=Courier New;fontSize=20;" parent="93PRhCsBqD0tyr6pIOzv-38" vertex="1">
          <mxGeometry y="17.5" width="40" height="45" as="geometry" />
        </mxCell>
        <mxCell id="93PRhCsBqD0tyr6pIOzv-39" value="" style="group" parent="1" vertex="1" connectable="0">
          <mxGeometry x="720" y="200" width="40" height="500" as="geometry" />
        </mxCell>
        <mxCell id="93PRhCsBqD0tyr6pIOzv-63" value="" style="group" parent="93PRhCsBqD0tyr6pIOzv-39" vertex="1" connectable="0">
          <mxGeometry width="40" height="500" as="geometry" />
        </mxCell>
        <mxCell id="Y1rLu_RjyALBYwUzoZZm-133" value="" style="rounded=0;whiteSpace=wrap;html=1;fillColor=#ffe6cc;strokeColor=#d79b00;" parent="93PRhCsBqD0tyr6pIOzv-63" vertex="1">
          <mxGeometry width="40" height="500" as="geometry" />
        </mxCell>
        <mxCell id="Y1rLu_RjyALBYwUzoZZm-135" value="Execute" style="text;html=1;strokeColor=none;fillColor=none;align=center;verticalAlign=middle;whiteSpace=wrap;rounded=0;fontFamily=Courier New;fontSize=9;" parent="93PRhCsBqD0tyr6pIOzv-63" vertex="1">
          <mxGeometry y="227.5" width="40" height="15" as="geometry" />
        </mxCell>
        <mxCell id="93PRhCsBqD0tyr6pIOzv-62" value="" style="triangle;whiteSpace=wrap;html=1;rotation=90;fillColor=#ffe6cc;strokeColor=#d79b00;" parent="93PRhCsBqD0tyr6pIOzv-63" vertex="1">
          <mxGeometry x="15" width="10" height="10" as="geometry" />
        </mxCell>
        <mxCell id="eolAdTWkz6nV8UobAQ28-23" value="SCLR" style="text;html=1;strokeColor=none;fillColor=none;align=center;verticalAlign=middle;whiteSpace=wrap;rounded=0;fontFamily=Courier New;fontSize=10;" parent="93PRhCsBqD0tyr6pIOzv-63" vertex="1">
          <mxGeometry x="7.5" y="490" width="25" height="10" as="geometry" />
        </mxCell>
        <mxCell id="93PRhCsBqD0tyr6pIOzv-40" value="" style="group" parent="1" vertex="1" connectable="0">
          <mxGeometry x="320" y="540" width="40" height="160" as="geometry" />
        </mxCell>
        <mxCell id="93PRhCsBqD0tyr6pIOzv-61" value="" style="group" parent="93PRhCsBqD0tyr6pIOzv-40" vertex="1" connectable="0">
          <mxGeometry width="40" height="160" as="geometry" />
        </mxCell>
        <mxCell id="Y1rLu_RjyALBYwUzoZZm-25" value="" style="rounded=0;whiteSpace=wrap;html=1;fillColor=#ffe6cc;strokeColor=#d79b00;" parent="93PRhCsBqD0tyr6pIOzv-61" vertex="1">
          <mxGeometry width="40" height="160" as="geometry" />
        </mxCell>
        <mxCell id="Y1rLu_RjyALBYwUzoZZm-32" value="Decode" style="text;html=1;strokeColor=none;fillColor=none;align=center;verticalAlign=middle;whiteSpace=wrap;rounded=0;fontFamily=Courier New;fontSize=10;" parent="93PRhCsBqD0tyr6pIOzv-61" vertex="1">
          <mxGeometry y="67.5" width="40" height="15" as="geometry" />
        </mxCell>
        <mxCell id="93PRhCsBqD0tyr6pIOzv-59" value="" style="triangle;whiteSpace=wrap;html=1;rotation=90;fillColor=#ffe6cc;strokeColor=#d79b00;" parent="93PRhCsBqD0tyr6pIOzv-61" vertex="1">
          <mxGeometry x="15" width="10" height="10" as="geometry" />
        </mxCell>
        <mxCell id="eolAdTWkz6nV8UobAQ28-16" value="SCLR" style="text;html=1;strokeColor=none;fillColor=none;align=center;verticalAlign=middle;whiteSpace=wrap;rounded=0;fontFamily=Courier New;fontSize=10;" parent="93PRhCsBqD0tyr6pIOzv-61" vertex="1">
          <mxGeometry x="7.5" y="150" width="25" height="10" as="geometry" />
        </mxCell>
        <mxCell id="93PRhCsBqD0tyr6pIOzv-41" value="" style="group" parent="1" vertex="1" connectable="0">
          <mxGeometry x="240" y="540" width="40" height="80" as="geometry" />
        </mxCell>
        <mxCell id="Y1rLu_RjyALBYwUzoZZm-18" value="" style="rounded=0;whiteSpace=wrap;html=1;fillColor=#dae8fc;strokeColor=#6c8ebf;" parent="93PRhCsBqD0tyr6pIOzv-41" vertex="1">
          <mxGeometry width="40" height="80" as="geometry" />
        </mxCell>
        <mxCell id="Y1rLu_RjyALBYwUzoZZm-19" value="instr" style="text;html=1;strokeColor=none;fillColor=none;align=center;verticalAlign=middle;whiteSpace=wrap;rounded=0;fontFamily=Courier New;fontSize=13;" parent="93PRhCsBqD0tyr6pIOzv-41" vertex="1">
          <mxGeometry x="5" y="25" width="30" height="30" as="geometry" />
        </mxCell>
        <mxCell id="93PRhCsBqD0tyr6pIOzv-42" value="" style="group" parent="1" vertex="1" connectable="0">
          <mxGeometry x="160" y="640" width="40" height="40" as="geometry" />
        </mxCell>
        <mxCell id="Y1rLu_RjyALBYwUzoZZm-9" value="" style="rounded=0;whiteSpace=wrap;html=1;" parent="93PRhCsBqD0tyr6pIOzv-42" vertex="1">
          <mxGeometry width="40" height="40" as="geometry" />
        </mxCell>
        <mxCell id="Y1rLu_RjyALBYwUzoZZm-10" value="+4" style="text;html=1;strokeColor=none;fillColor=none;align=center;verticalAlign=middle;whiteSpace=wrap;rounded=0;fontFamily=Courier New;fontSize=20;" parent="93PRhCsBqD0tyr6pIOzv-42" vertex="1">
          <mxGeometry x="5" y="5" width="30" height="30" as="geometry" />
        </mxCell>
        <mxCell id="93PRhCsBqD0tyr6pIOzv-43" value="" style="endArrow=classic;html=1;rounded=0;exitX=0.5;exitY=1;exitDx=0;exitDy=0;" parent="1" source="93PRhCsBqD0tyr6pIOzv-11" edge="1">
          <mxGeometry width="50" height="50" relative="1" as="geometry">
            <mxPoint x="1030" y="695" as="sourcePoint" />
            <mxPoint x="1040" y="518" as="targetPoint" />
          </mxGeometry>
        </mxCell>
        <mxCell id="93PRhCsBqD0tyr6pIOzv-44" value="" style="endArrow=classic;html=1;rounded=0;exitX=0.5;exitY=1;exitDx=0;exitDy=0;entryX=0.165;entryY=1;entryDx=0;entryDy=0;entryPerimeter=0;" parent="1" source="93PRhCsBqD0tyr6pIOzv-5" target="93PRhCsBqD0tyr6pIOzv-18" edge="1">
          <mxGeometry width="50" height="50" relative="1" as="geometry">
            <mxPoint x="960" y="519.8" as="sourcePoint" />
            <mxPoint x="1000" y="519.8" as="targetPoint" />
          </mxGeometry>
        </mxCell>
        <mxCell id="93PRhCsBqD0tyr6pIOzv-47" value="" style="endArrow=classic;html=1;rounded=0;" parent="1" edge="1">
          <mxGeometry width="50" height="50" relative="1" as="geometry">
            <mxPoint x="760" y="299.8" as="sourcePoint" />
            <mxPoint x="1070" y="440" as="targetPoint" />
            <Array as="points">
              <mxPoint x="1070" y="300" />
            </Array>
          </mxGeometry>
        </mxCell>
        <mxCell id="93PRhCsBqD0tyr6pIOzv-48" value="alu_opE" style="text;html=1;strokeColor=none;fillColor=none;align=center;verticalAlign=middle;whiteSpace=wrap;rounded=0;fontFamily=Courier New;fontSize=10;" parent="1" vertex="1">
          <mxGeometry x="760" y="289" width="50" height="8" as="geometry" />
        </mxCell>
        <mxCell id="93PRhCsBqD0tyr6pIOzv-49" value="op_a" style="text;html=1;strokeColor=none;fillColor=none;align=center;verticalAlign=middle;whiteSpace=wrap;rounded=0;fontFamily=Courier New;fontSize=10;" parent="1" vertex="1">
          <mxGeometry x="1000" y="435" width="30" height="15" as="geometry" />
        </mxCell>
        <mxCell id="93PRhCsBqD0tyr6pIOzv-50" value="op_b" style="text;html=1;strokeColor=none;fillColor=none;align=center;verticalAlign=middle;whiteSpace=wrap;rounded=0;fontFamily=Courier New;fontSize=10;" parent="1" vertex="1">
          <mxGeometry x="1000" y="503" width="30" height="15" as="geometry" />
        </mxCell>
        <mxCell id="93PRhCsBqD0tyr6pIOzv-51" value="" style="endArrow=classic;html=1;rounded=0;entryX=1;entryY=0.5;entryDx=0;entryDy=0;" parent="1" target="93PRhCsBqD0tyr6pIOzv-11" edge="1">
          <mxGeometry width="50" height="50" relative="1" as="geometry">
            <mxPoint x="760" y="320" as="sourcePoint" />
            <mxPoint x="990" y="485" as="targetPoint" />
            <Array as="points">
              <mxPoint x="990" y="320" />
            </Array>
          </mxGeometry>
        </mxCell>
        <mxCell id="93PRhCsBqD0tyr6pIOzv-52" value="" style="endArrow=classic;html=1;rounded=0;" parent="1" edge="1">
          <mxGeometry width="50" height="50" relative="1" as="geometry">
            <mxPoint x="760" y="340" as="sourcePoint" />
            <mxPoint x="950" y="420" as="targetPoint" />
            <Array as="points">
              <mxPoint x="950" y="340" />
            </Array>
          </mxGeometry>
        </mxCell>
        <mxCell id="93PRhCsBqD0tyr6pIOzv-53" value="op_b_selE" style="text;html=1;strokeColor=none;fillColor=none;align=center;verticalAlign=middle;whiteSpace=wrap;rounded=0;fontFamily=Courier New;fontSize=10;" parent="1" vertex="1">
          <mxGeometry x="760" y="309" width="60" height="8" as="geometry" />
        </mxCell>
        <mxCell id="93PRhCsBqD0tyr6pIOzv-54" value="op_a_selE" style="text;html=1;strokeColor=none;fillColor=none;align=center;verticalAlign=middle;whiteSpace=wrap;rounded=0;fontFamily=Courier New;fontSize=10;" parent="1" vertex="1">
          <mxGeometry x="760" y="329" width="60" height="8" as="geometry" />
        </mxCell>
        <mxCell id="93PRhCsBqD0tyr6pIOzv-55" value="" style="group" parent="1" vertex="1" connectable="0">
          <mxGeometry x="1160" y="200" width="40" height="500" as="geometry" />
        </mxCell>
        <mxCell id="93PRhCsBqD0tyr6pIOzv-65" value="" style="group" parent="93PRhCsBqD0tyr6pIOzv-55" vertex="1" connectable="0">
          <mxGeometry width="40" height="500" as="geometry" />
        </mxCell>
        <mxCell id="93PRhCsBqD0tyr6pIOzv-56" value="" style="rounded=0;whiteSpace=wrap;html=1;fillColor=#ffe6cc;strokeColor=#d79b00;" parent="93PRhCsBqD0tyr6pIOzv-65" vertex="1">
          <mxGeometry width="40" height="500" as="geometry" />
        </mxCell>
        <mxCell id="93PRhCsBqD0tyr6pIOzv-57" value="Memory" style="text;html=1;strokeColor=none;fillColor=none;align=center;verticalAlign=middle;whiteSpace=wrap;rounded=0;fontFamily=Courier New;fontSize=10;" parent="93PRhCsBqD0tyr6pIOzv-65" vertex="1">
          <mxGeometry y="227.5" width="40" height="15" as="geometry" />
        </mxCell>
        <mxCell id="93PRhCsBqD0tyr6pIOzv-64" value="" style="triangle;whiteSpace=wrap;html=1;rotation=90;fillColor=#ffe6cc;strokeColor=#d79b00;" parent="93PRhCsBqD0tyr6pIOzv-65" vertex="1">
          <mxGeometry x="15" width="10" height="10" as="geometry" />
        </mxCell>
        <mxCell id="93PRhCsBqD0tyr6pIOzv-67" value="" style="endArrow=classic;html=1;rounded=0;entryX=0;entryY=0.62;entryDx=0;entryDy=0;entryPerimeter=0;" parent="1" edge="1">
          <mxGeometry width="50" height="50" relative="1" as="geometry">
            <mxPoint x="1100" y="490" as="sourcePoint" />
            <mxPoint x="1160" y="490" as="targetPoint" />
          </mxGeometry>
        </mxCell>
        <mxCell id="93PRhCsBqD0tyr6pIOzv-68" value="" style="endArrow=classic;html=1;rounded=0;entryX=0;entryY=0.32;entryDx=0;entryDy=0;entryPerimeter=0;" parent="1" target="93PRhCsBqD0tyr6pIOzv-56" edge="1">
          <mxGeometry width="50" height="50" relative="1" as="geometry">
            <mxPoint x="760" y="360" as="sourcePoint" />
            <mxPoint x="980" y="360.17" as="targetPoint" />
          </mxGeometry>
        </mxCell>
        <mxCell id="93PRhCsBqD0tyr6pIOzv-69" value="" style="endArrow=classic;html=1;rounded=0;entryX=0;entryY=0.16;entryDx=0;entryDy=0;entryPerimeter=0;" parent="1" target="93PRhCsBqD0tyr6pIOzv-56" edge="1">
          <mxGeometry width="50" height="50" relative="1" as="geometry">
            <mxPoint x="760" y="280" as="sourcePoint" />
            <mxPoint x="1120" y="280" as="targetPoint" />
          </mxGeometry>
        </mxCell>
        <mxCell id="93PRhCsBqD0tyr6pIOzv-70" value="" style="endArrow=classic;html=1;rounded=0;entryX=0;entryY=0.12;entryDx=0;entryDy=0;entryPerimeter=0;" parent="1" target="93PRhCsBqD0tyr6pIOzv-56" edge="1">
          <mxGeometry width="50" height="50" relative="1" as="geometry">
            <mxPoint x="760" y="260" as="sourcePoint" />
            <mxPoint x="1120" y="260" as="targetPoint" />
          </mxGeometry>
        </mxCell>
        <mxCell id="93PRhCsBqD0tyr6pIOzv-71" value="" style="endArrow=classic;html=1;rounded=0;entryX=0;entryY=0.08;entryDx=0;entryDy=0;entryPerimeter=0;" parent="1" target="93PRhCsBqD0tyr6pIOzv-56" edge="1">
          <mxGeometry width="50" height="50" relative="1" as="geometry">
            <mxPoint x="760" y="240" as="sourcePoint" />
            <mxPoint x="1120" y="240" as="targetPoint" />
          </mxGeometry>
        </mxCell>
        <mxCell id="93PRhCsBqD0tyr6pIOzv-72" value="" style="endArrow=classic;html=1;rounded=0;entryX=0;entryY=0.04;entryDx=0;entryDy=0;entryPerimeter=0;" parent="1" target="93PRhCsBqD0tyr6pIOzv-56" edge="1">
          <mxGeometry width="50" height="50" relative="1" as="geometry">
            <mxPoint x="760" y="220" as="sourcePoint" />
            <mxPoint x="1120" y="220" as="targetPoint" />
          </mxGeometry>
        </mxCell>
        <mxCell id="93PRhCsBqD0tyr6pIOzv-75" value="rd_wrenE" style="text;html=1;strokeColor=none;fillColor=none;align=center;verticalAlign=middle;whiteSpace=wrap;rounded=0;fontFamily=Courier New;fontSize=10;" parent="1" vertex="1">
          <mxGeometry x="760" y="349" width="47" height="8" as="geometry" />
        </mxCell>
        <mxCell id="93PRhCsBqD0tyr6pIOzv-76" value="byte_enE" style="text;html=1;strokeColor=none;fillColor=none;align=center;verticalAlign=middle;whiteSpace=wrap;rounded=0;fontFamily=Courier New;fontSize=10;" parent="1" vertex="1">
          <mxGeometry x="760" y="269" width="50" height="8" as="geometry" />
        </mxCell>
        <mxCell id="93PRhCsBqD0tyr6pIOzv-77" value="mem_wrenE" style="text;html=1;strokeColor=none;fillColor=none;align=center;verticalAlign=middle;whiteSpace=wrap;rounded=0;fontFamily=Courier New;fontSize=10;" parent="1" vertex="1">
          <mxGeometry x="760" y="249" width="55" height="8" as="geometry" />
        </mxCell>
        <mxCell id="93PRhCsBqD0tyr6pIOzv-78" value="ld_selE" style="text;html=1;strokeColor=none;fillColor=none;align=center;verticalAlign=middle;whiteSpace=wrap;rounded=0;fontFamily=Courier New;fontSize=10;" parent="1" vertex="1">
          <mxGeometry x="760" y="229" width="45" height="8" as="geometry" />
        </mxCell>
        <mxCell id="93PRhCsBqD0tyr6pIOzv-79" value="wb_selE" style="text;html=1;strokeColor=none;fillColor=none;align=center;verticalAlign=middle;whiteSpace=wrap;rounded=0;fontFamily=Courier New;fontSize=10;" parent="1" vertex="1">
          <mxGeometry x="760" y="209" width="45" height="8" as="geometry" />
        </mxCell>
        <mxCell id="93PRhCsBqD0tyr6pIOzv-82" value="" style="endArrow=classic;html=1;rounded=0;exitX=0.008;exitY=0.966;exitDx=0;exitDy=0;exitPerimeter=0;" parent="1" source="93PRhCsBqD0tyr6pIOzv-86" edge="1">
          <mxGeometry width="50" height="50" relative="1" as="geometry">
            <mxPoint x="760" y="605" as="sourcePoint" />
            <mxPoint x="860" y="800" as="targetPoint" />
            <Array as="points">
              <mxPoint x="860" y="600" />
            </Array>
          </mxGeometry>
        </mxCell>
        <mxCell id="93PRhCsBqD0tyr6pIOzv-83" value="alu_data" style="text;html=1;strokeColor=none;fillColor=none;align=center;verticalAlign=middle;whiteSpace=wrap;rounded=0;fontFamily=Courier New;fontSize=10;" parent="1" vertex="1">
          <mxGeometry x="1100" y="477" width="50" height="12" as="geometry" />
        </mxCell>
        <mxCell id="93PRhCsBqD0tyr6pIOzv-84" value="" style="endArrow=classic;html=1;rounded=0;exitX=0;exitY=1;exitDx=0;exitDy=0;" parent="1" source="93PRhCsBqD0tyr6pIOzv-87" edge="1">
          <mxGeometry width="50" height="50" relative="1" as="geometry">
            <mxPoint x="760" y="625" as="sourcePoint" />
            <mxPoint x="840" y="800" as="targetPoint" />
            <Array as="points">
              <mxPoint x="840" y="620" />
            </Array>
          </mxGeometry>
        </mxCell>
        <mxCell id="93PRhCsBqD0tyr6pIOzv-85" value="" style="endArrow=classic;html=1;rounded=0;entryX=0;entryY=0.8;entryDx=0;entryDy=0;entryPerimeter=0;" parent="1" edge="1">
          <mxGeometry width="50" height="50" relative="1" as="geometry">
            <mxPoint x="760" y="640" as="sourcePoint" />
            <mxPoint x="1160" y="640" as="targetPoint" />
          </mxGeometry>
        </mxCell>
        <mxCell id="93PRhCsBqD0tyr6pIOzv-86" value="rs1_addrE" style="text;html=1;strokeColor=none;fillColor=none;align=center;verticalAlign=middle;whiteSpace=wrap;rounded=0;fontFamily=Courier New;fontSize=10;" parent="1" vertex="1">
          <mxGeometry x="760" y="585.5" width="60" height="15" as="geometry" />
        </mxCell>
        <mxCell id="93PRhCsBqD0tyr6pIOzv-87" value="rs2_addrE" style="text;html=1;strokeColor=none;fillColor=none;align=center;verticalAlign=middle;whiteSpace=wrap;rounded=0;fontFamily=Courier New;fontSize=10;" parent="1" vertex="1">
          <mxGeometry x="760" y="605" width="60" height="15" as="geometry" />
        </mxCell>
        <mxCell id="93PRhCsBqD0tyr6pIOzv-88" value="rd_addrE" style="text;html=1;strokeColor=none;fillColor=none;align=center;verticalAlign=middle;whiteSpace=wrap;rounded=0;fontFamily=Courier New;fontSize=10;" parent="1" vertex="1">
          <mxGeometry x="760" y="625" width="50" height="15" as="geometry" />
        </mxCell>
        <mxCell id="93PRhCsBqD0tyr6pIOzv-94" value="" style="group" parent="1" vertex="1" connectable="0">
          <mxGeometry x="1280" y="450" width="80" height="127" as="geometry" />
        </mxCell>
        <mxCell id="93PRhCsBqD0tyr6pIOzv-89" value="" style="rounded=0;whiteSpace=wrap;html=1;fillColor=#b0e3e6;strokeColor=#0e8088;" parent="93PRhCsBqD0tyr6pIOzv-94" vertex="1">
          <mxGeometry width="80" height="120" as="geometry" />
        </mxCell>
        <mxCell id="93PRhCsBqD0tyr6pIOzv-90" value="LSU" style="text;html=1;strokeColor=none;fillColor=none;align=center;verticalAlign=middle;whiteSpace=wrap;rounded=0;fontFamily=Courier New;fontSize=20;" parent="93PRhCsBqD0tyr6pIOzv-94" vertex="1">
          <mxGeometry x="22.5" y="50" width="35" height="20" as="geometry" />
        </mxCell>
        <mxCell id="93PRhCsBqD0tyr6pIOzv-91" value="" style="ellipse;whiteSpace=wrap;html=1;" parent="93PRhCsBqD0tyr6pIOzv-94" vertex="1">
          <mxGeometry x="37" y="121" width="6" height="6" as="geometry" />
        </mxCell>
        <mxCell id="93PRhCsBqD0tyr6pIOzv-92" value="" style="triangle;whiteSpace=wrap;html=1;rotation=-90;fillColor=#b0e3e6;strokeColor=#0e8088;" parent="93PRhCsBqD0tyr6pIOzv-94" vertex="1">
          <mxGeometry x="35" y="110" width="10" height="10" as="geometry" />
        </mxCell>
        <mxCell id="93PRhCsBqD0tyr6pIOzv-104" value="addr" style="text;html=1;strokeColor=none;fillColor=none;align=center;verticalAlign=middle;whiteSpace=wrap;rounded=0;fontFamily=Courier New;fontSize=10;" parent="93PRhCsBqD0tyr6pIOzv-94" vertex="1">
          <mxGeometry y="35" width="30" height="10" as="geometry" />
        </mxCell>
        <mxCell id="93PRhCsBqD0tyr6pIOzv-111" value="din" style="text;html=1;strokeColor=none;fillColor=none;align=center;verticalAlign=middle;whiteSpace=wrap;rounded=0;fontFamily=Courier New;fontSize=10;" parent="93PRhCsBqD0tyr6pIOzv-94" vertex="1">
          <mxGeometry y="105" width="20" height="10" as="geometry" />
        </mxCell>
        <mxCell id="93PRhCsBqD0tyr6pIOzv-115" value="byteen" style="text;html=1;strokeColor=none;fillColor=none;align=center;verticalAlign=middle;whiteSpace=wrap;rounded=0;fontFamily=Courier New;fontSize=10;" parent="93PRhCsBqD0tyr6pIOzv-94" vertex="1">
          <mxGeometry y="16" width="40" height="8" as="geometry" />
        </mxCell>
        <mxCell id="93PRhCsBqD0tyr6pIOzv-128" value="wren" style="text;html=1;strokeColor=none;fillColor=none;align=center;verticalAlign=middle;whiteSpace=wrap;rounded=0;fontFamily=Courier New;fontSize=10;" parent="93PRhCsBqD0tyr6pIOzv-94" vertex="1">
          <mxGeometry x="50" width="30" height="8" as="geometry" />
        </mxCell>
        <mxCell id="93PRhCsBqD0tyr6pIOzv-140" value="ldsel" style="text;html=1;strokeColor=none;fillColor=none;align=center;verticalAlign=middle;whiteSpace=wrap;rounded=0;fontFamily=Courier New;fontSize=10;" parent="93PRhCsBqD0tyr6pIOzv-94" vertex="1">
          <mxGeometry width="30" height="8" as="geometry" />
        </mxCell>
        <mxCell id="93PRhCsBqD0tyr6pIOzv-98" value="" style="ellipse;whiteSpace=wrap;html=1;fillColor=#000000;aspect=fixed;" parent="1" vertex="1">
          <mxGeometry x="858" y="577.5" width="4" height="4" as="geometry" />
        </mxCell>
        <mxCell id="93PRhCsBqD0tyr6pIOzv-99" value="" style="endArrow=classic;html=1;rounded=0;entryX=0;entryY=0.76;entryDx=0;entryDy=0;entryPerimeter=0;" parent="1" target="93PRhCsBqD0tyr6pIOzv-56" edge="1">
          <mxGeometry width="50" height="50" relative="1" as="geometry">
            <mxPoint x="830" y="580" as="sourcePoint" />
            <mxPoint x="1122" y="580" as="targetPoint" />
          </mxGeometry>
        </mxCell>
        <mxCell id="93PRhCsBqD0tyr6pIOzv-100" value="" style="endArrow=classic;html=1;rounded=0;entryX=0;entryY=0.5;entryDx=0;entryDy=0;" parent="1" target="93PRhCsBqD0tyr6pIOzv-104" edge="1">
          <mxGeometry width="50" height="50" relative="1" as="geometry">
            <mxPoint x="1200" y="490" as="sourcePoint" />
            <mxPoint x="1270" y="490" as="targetPoint" />
            <Array as="points" />
          </mxGeometry>
        </mxCell>
        <mxCell id="93PRhCsBqD0tyr6pIOzv-101" value="alu_dataM" style="text;html=1;strokeColor=none;fillColor=none;align=center;verticalAlign=middle;whiteSpace=wrap;rounded=0;fontFamily=Courier New;fontSize=10;" parent="1" vertex="1">
          <mxGeometry x="1200" y="490" width="60" height="12" as="geometry" />
        </mxCell>
        <mxCell id="93PRhCsBqD0tyr6pIOzv-102" value="" style="endArrow=classic;html=1;rounded=0;entryX=0;entryY=0.5;entryDx=0;entryDy=0;" parent="1" target="93PRhCsBqD0tyr6pIOzv-111" edge="1">
          <mxGeometry width="50" height="50" relative="1" as="geometry">
            <mxPoint x="1200" y="560" as="sourcePoint" />
            <mxPoint x="1275" y="560" as="targetPoint" />
            <Array as="points">
              <mxPoint x="1250" y="560" />
              <mxPoint x="1255" y="560" />
            </Array>
          </mxGeometry>
        </mxCell>
        <mxCell id="93PRhCsBqD0tyr6pIOzv-103" value="rs2_dataM" style="text;html=1;strokeColor=none;fillColor=none;align=center;verticalAlign=middle;whiteSpace=wrap;rounded=0;fontFamily=Courier New;fontSize=10;" parent="1" vertex="1">
          <mxGeometry x="1200" y="565" width="60" height="15" as="geometry" />
        </mxCell>
        <mxCell id="93PRhCsBqD0tyr6pIOzv-112" value="" style="endArrow=classic;html=1;rounded=0;entryX=0;entryY=0.167;entryDx=0;entryDy=0;entryPerimeter=0;" parent="1" target="93PRhCsBqD0tyr6pIOzv-89" edge="1">
          <mxGeometry width="50" height="50" relative="1" as="geometry">
            <mxPoint x="1200" y="280" as="sourcePoint" />
            <mxPoint x="1270" y="480" as="targetPoint" />
            <Array as="points">
              <mxPoint x="1255" y="280" />
              <mxPoint x="1255" y="470" />
            </Array>
          </mxGeometry>
        </mxCell>
        <mxCell id="93PRhCsBqD0tyr6pIOzv-114" value="byte_enM" style="text;html=1;strokeColor=none;fillColor=none;align=center;verticalAlign=middle;whiteSpace=wrap;rounded=0;fontFamily=Courier New;fontSize=10;" parent="1" vertex="1">
          <mxGeometry x="1200" y="269" width="50" height="8" as="geometry" />
        </mxCell>
        <mxCell id="93PRhCsBqD0tyr6pIOzv-116" value="" style="endArrow=classic;html=1;rounded=0;entryX=0.875;entryY=0;entryDx=0;entryDy=0;entryPerimeter=0;exitX=1;exitY=0.12;exitDx=0;exitDy=0;exitPerimeter=0;" parent="1" target="93PRhCsBqD0tyr6pIOzv-89" edge="1">
          <mxGeometry width="50" height="50" relative="1" as="geometry">
            <mxPoint x="1200" y="259.99999999999994" as="sourcePoint" />
            <mxPoint x="1350" y="420" as="targetPoint" />
            <Array as="points">
              <mxPoint x="1350" y="260" />
            </Array>
          </mxGeometry>
        </mxCell>
        <mxCell id="93PRhCsBqD0tyr6pIOzv-118" value="mem_wrenM" style="text;html=1;strokeColor=none;fillColor=none;align=center;verticalAlign=middle;whiteSpace=wrap;rounded=0;fontFamily=Courier New;fontSize=10;" parent="1" vertex="1">
          <mxGeometry x="1200" y="249" width="55" height="8" as="geometry" />
        </mxCell>
        <mxCell id="93PRhCsBqD0tyr6pIOzv-129" value="" style="endArrow=classic;html=1;rounded=0;entryX=0.125;entryY=0;entryDx=0;entryDy=0;entryPerimeter=0;exitX=1;exitY=0.12;exitDx=0;exitDy=0;exitPerimeter=0;" parent="1" target="93PRhCsBqD0tyr6pIOzv-89" edge="1">
          <mxGeometry width="50" height="50" relative="1" as="geometry">
            <mxPoint x="1200" y="239.99999999999994" as="sourcePoint" />
            <mxPoint x="1350" y="420" as="targetPoint" />
            <Array as="points">
              <mxPoint x="1290" y="240" />
            </Array>
          </mxGeometry>
        </mxCell>
        <mxCell id="93PRhCsBqD0tyr6pIOzv-130" value="ld_selM" style="text;html=1;strokeColor=none;fillColor=none;align=center;verticalAlign=middle;whiteSpace=wrap;rounded=0;fontFamily=Courier New;fontSize=10;" parent="1" vertex="1">
          <mxGeometry x="1200" y="229" width="45" height="8" as="geometry" />
        </mxCell>
        <mxCell id="93PRhCsBqD0tyr6pIOzv-142" value="" style="shape=flexArrow;endArrow=classic;startArrow=classic;html=1;rounded=0;fillColor=#f9f7ed;strokeColor=#36393d;" parent="1" edge="1">
          <mxGeometry width="100" height="100" relative="1" as="geometry">
            <mxPoint x="1349.88" y="750" as="sourcePoint" />
            <mxPoint x="1349.88" y="570" as="targetPoint" />
          </mxGeometry>
        </mxCell>
        <mxCell id="93PRhCsBqD0tyr6pIOzv-143" value="Peripherals" style="text;html=1;strokeColor=none;fillColor=none;align=center;verticalAlign=middle;whiteSpace=wrap;rounded=0;fontFamily=Courier New;fontSize=15;fontStyle=1" parent="1" vertex="1">
          <mxGeometry x="1300" y="751" width="100" height="20" as="geometry" />
        </mxCell>
        <mxCell id="93PRhCsBqD0tyr6pIOzv-144" value="" style="group" parent="1" vertex="1" connectable="0">
          <mxGeometry x="1420" y="200" width="40" height="500" as="geometry" />
        </mxCell>
        <mxCell id="93PRhCsBqD0tyr6pIOzv-145" value="" style="group" parent="93PRhCsBqD0tyr6pIOzv-144" vertex="1" connectable="0">
          <mxGeometry width="40" height="500" as="geometry" />
        </mxCell>
        <mxCell id="93PRhCsBqD0tyr6pIOzv-146" value="" style="rounded=0;whiteSpace=wrap;html=1;fillColor=#ffe6cc;strokeColor=#d79b00;" parent="93PRhCsBqD0tyr6pIOzv-145" vertex="1">
          <mxGeometry width="40" height="500" as="geometry" />
        </mxCell>
        <mxCell id="93PRhCsBqD0tyr6pIOzv-147" value="Write&lt;br&gt;back" style="text;html=1;strokeColor=none;fillColor=none;align=center;verticalAlign=middle;whiteSpace=wrap;rounded=0;fontFamily=Courier New;fontSize=10;" parent="93PRhCsBqD0tyr6pIOzv-145" vertex="1">
          <mxGeometry y="227.5" width="40" height="15" as="geometry" />
        </mxCell>
        <mxCell id="93PRhCsBqD0tyr6pIOzv-148" value="" style="triangle;whiteSpace=wrap;html=1;rotation=90;fillColor=#ffe6cc;strokeColor=#d79b00;" parent="93PRhCsBqD0tyr6pIOzv-145" vertex="1">
          <mxGeometry x="15" width="10" height="10" as="geometry" />
        </mxCell>
        <mxCell id="93PRhCsBqD0tyr6pIOzv-149" value="" style="endArrow=classic;html=1;rounded=0;" parent="1" edge="1">
          <mxGeometry width="50" height="50" relative="1" as="geometry">
            <mxPoint x="1200" y="360" as="sourcePoint" />
            <mxPoint x="1420" y="360" as="targetPoint" />
          </mxGeometry>
        </mxCell>
        <mxCell id="93PRhCsBqD0tyr6pIOzv-150" value="rd_wrenM" style="text;html=1;strokeColor=none;fillColor=none;align=center;verticalAlign=middle;whiteSpace=wrap;rounded=0;fontFamily=Courier New;fontSize=10;" parent="1" vertex="1">
          <mxGeometry x="1200" y="349" width="47" height="8" as="geometry" />
        </mxCell>
        <mxCell id="93PRhCsBqD0tyr6pIOzv-151" value="" style="endArrow=classic;html=1;rounded=0;" parent="1" edge="1">
          <mxGeometry width="50" height="50" relative="1" as="geometry">
            <mxPoint x="1200" y="639.78" as="sourcePoint" />
            <mxPoint x="1420" y="639.78" as="targetPoint" />
          </mxGeometry>
        </mxCell>
        <mxCell id="93PRhCsBqD0tyr6pIOzv-152" value="rd_addrM" style="text;html=1;strokeColor=none;fillColor=none;align=center;verticalAlign=middle;whiteSpace=wrap;rounded=0;fontFamily=Courier New;fontSize=10;" parent="1" vertex="1">
          <mxGeometry x="1200" y="628.78" width="47" height="8" as="geometry" />
        </mxCell>
        <mxCell id="93PRhCsBqD0tyr6pIOzv-154" value="" style="endArrow=classic;html=1;rounded=0;entryX=0;entryY=0.58;entryDx=0;entryDy=0;entryPerimeter=0;" parent="1" edge="1">
          <mxGeometry width="50" height="50" relative="1" as="geometry">
            <mxPoint x="1360" y="500" as="sourcePoint" />
            <mxPoint x="1420" y="500" as="targetPoint" />
            <Array as="points" />
          </mxGeometry>
        </mxCell>
        <mxCell id="93PRhCsBqD0tyr6pIOzv-156" value="ld_data" style="text;html=1;strokeColor=none;fillColor=none;align=center;verticalAlign=middle;whiteSpace=wrap;rounded=0;fontFamily=Courier New;fontSize=9;" parent="1" vertex="1">
          <mxGeometry x="1360" y="489" width="40" height="10" as="geometry" />
        </mxCell>
        <mxCell id="93PRhCsBqD0tyr6pIOzv-157" value="" style="endArrow=classic;html=1;rounded=0;" parent="1" edge="1">
          <mxGeometry width="50" height="50" relative="1" as="geometry">
            <mxPoint x="1200" y="689.85" as="sourcePoint" />
            <mxPoint x="1420" y="689.85" as="targetPoint" />
          </mxGeometry>
        </mxCell>
        <mxCell id="93PRhCsBqD0tyr6pIOzv-158" value="pc4M" style="text;html=1;strokeColor=none;fillColor=none;align=center;verticalAlign=middle;whiteSpace=wrap;rounded=0;fontFamily=Courier New;fontSize=10;" parent="1" vertex="1">
          <mxGeometry x="1200" y="680" width="30" height="6.85" as="geometry" />
        </mxCell>
        <mxCell id="93PRhCsBqD0tyr6pIOzv-159" value="" style="endArrow=classic;html=1;rounded=0;" parent="1" edge="1">
          <mxGeometry width="50" height="50" relative="1" as="geometry">
            <mxPoint x="1200" y="220" as="sourcePoint" />
            <mxPoint x="1420" y="220" as="targetPoint" />
          </mxGeometry>
        </mxCell>
        <mxCell id="93PRhCsBqD0tyr6pIOzv-160" value="wb_selM" style="text;html=1;strokeColor=none;fillColor=none;align=center;verticalAlign=middle;whiteSpace=wrap;rounded=0;fontFamily=Courier New;fontSize=10;" parent="1" vertex="1">
          <mxGeometry x="1200" y="209" width="47" height="8" as="geometry" />
        </mxCell>
        <mxCell id="93PRhCsBqD0tyr6pIOzv-161" value="rd_addrD" style="text;html=1;strokeColor=none;fillColor=none;align=center;verticalAlign=middle;whiteSpace=wrap;rounded=0;fontFamily=Courier New;fontSize=10;" parent="1" vertex="1">
          <mxGeometry x="660" y="625" width="50" height="15" as="geometry" />
        </mxCell>
        <mxCell id="93PRhCsBqD0tyr6pIOzv-171" value="" style="group" parent="1" vertex="1" connectable="0">
          <mxGeometry x="1520" y="440" width="20" height="120" as="geometry" />
        </mxCell>
        <mxCell id="93PRhCsBqD0tyr6pIOzv-167" value="" style="verticalLabelPosition=middle;verticalAlign=middle;html=1;shape=trapezoid;perimeter=trapezoidPerimeter;whiteSpace=wrap;size=0.23;arcSize=10;flipV=1;labelPosition=center;align=center;rotation=-90;" parent="93PRhCsBqD0tyr6pIOzv-171" vertex="1">
          <mxGeometry x="-50" y="50" width="120" height="20" as="geometry" />
        </mxCell>
        <mxCell id="93PRhCsBqD0tyr6pIOzv-168" value="1" style="text;html=1;strokeColor=none;fillColor=none;align=center;verticalAlign=middle;whiteSpace=wrap;rounded=0;fontFamily=Courier New;fontSize=20;" parent="93PRhCsBqD0tyr6pIOzv-171" vertex="1">
          <mxGeometry x="5" y="45" width="10" height="30" as="geometry" />
        </mxCell>
        <mxCell id="93PRhCsBqD0tyr6pIOzv-169" value="0" style="text;html=1;strokeColor=none;fillColor=none;align=center;verticalAlign=middle;whiteSpace=wrap;rounded=0;fontFamily=Courier New;fontSize=20;" parent="93PRhCsBqD0tyr6pIOzv-171" vertex="1">
          <mxGeometry x="5" y="15" width="10" height="30" as="geometry" />
        </mxCell>
        <mxCell id="93PRhCsBqD0tyr6pIOzv-170" value="2" style="text;html=1;strokeColor=none;fillColor=none;align=center;verticalAlign=middle;whiteSpace=wrap;rounded=0;fontFamily=Courier New;fontSize=20;" parent="93PRhCsBqD0tyr6pIOzv-171" vertex="1">
          <mxGeometry x="5" y="75" width="10" height="30" as="geometry" />
        </mxCell>
        <mxCell id="93PRhCsBqD0tyr6pIOzv-172" value="" style="endArrow=classic;html=1;rounded=0;entryX=0;entryY=0.44;entryDx=0;entryDy=0;entryPerimeter=0;exitX=0.833;exitY=0;exitDx=0;exitDy=0;exitPerimeter=0;" parent="1" source="93PRhCsBqD0tyr6pIOzv-101" target="93PRhCsBqD0tyr6pIOzv-146" edge="1">
          <mxGeometry width="50" height="50" relative="1" as="geometry">
            <mxPoint x="1250" y="420" as="sourcePoint" />
            <mxPoint x="1340" y="420" as="targetPoint" />
            <Array as="points">
              <mxPoint x="1250" y="420" />
            </Array>
          </mxGeometry>
        </mxCell>
        <mxCell id="93PRhCsBqD0tyr6pIOzv-173" value="" style="ellipse;whiteSpace=wrap;html=1;fillColor=#000000;aspect=fixed;" parent="1" vertex="1">
          <mxGeometry x="1248" y="488" width="4" height="4" as="geometry" />
        </mxCell>
        <mxCell id="93PRhCsBqD0tyr6pIOzv-174" value="" style="endArrow=classic;html=1;rounded=0;entryX=0;entryY=0.58;entryDx=0;entryDy=0;entryPerimeter=0;" parent="1" edge="1">
          <mxGeometry width="50" height="50" relative="1" as="geometry">
            <mxPoint x="1460" y="500" as="sourcePoint" />
            <mxPoint x="1520" y="500" as="targetPoint" />
            <Array as="points" />
          </mxGeometry>
        </mxCell>
        <mxCell id="93PRhCsBqD0tyr6pIOzv-175" value="ld_dataW" style="text;html=1;strokeColor=none;fillColor=none;align=center;verticalAlign=middle;whiteSpace=wrap;rounded=0;fontFamily=Courier New;fontSize=10;" parent="1" vertex="1">
          <mxGeometry x="1460" y="485" width="50" height="15" as="geometry" />
        </mxCell>
        <mxCell id="93PRhCsBqD0tyr6pIOzv-177" value="" style="endArrow=classic;html=1;rounded=0;entryX=0.75;entryY=0;entryDx=0;entryDy=0;" parent="1" target="93PRhCsBqD0tyr6pIOzv-167" edge="1">
          <mxGeometry width="50" height="50" relative="1" as="geometry">
            <mxPoint x="1460" y="419.89" as="sourcePoint" />
            <mxPoint x="1510" y="470" as="targetPoint" />
            <Array as="points">
              <mxPoint x="1500" y="420" />
              <mxPoint x="1500" y="470" />
            </Array>
          </mxGeometry>
        </mxCell>
        <mxCell id="93PRhCsBqD0tyr6pIOzv-178" value="alu_dataW" style="text;html=1;strokeColor=none;fillColor=none;align=center;verticalAlign=middle;whiteSpace=wrap;rounded=0;fontFamily=Courier New;fontSize=10;" parent="1" vertex="1">
          <mxGeometry x="1460" y="404.89" width="60" height="15" as="geometry" />
        </mxCell>
        <mxCell id="93PRhCsBqD0tyr6pIOzv-179" value="" style="endArrow=classic;html=1;rounded=0;entryX=1;entryY=0.5;entryDx=0;entryDy=0;" parent="1" target="93PRhCsBqD0tyr6pIOzv-167" edge="1">
          <mxGeometry width="50" height="50" relative="1" as="geometry">
            <mxPoint x="1460" y="220" as="sourcePoint" />
            <mxPoint x="1530" y="450" as="targetPoint" />
            <Array as="points">
              <mxPoint x="1530" y="220" />
            </Array>
          </mxGeometry>
        </mxCell>
        <mxCell id="93PRhCsBqD0tyr6pIOzv-180" value="wb_selW" style="text;html=1;strokeColor=none;fillColor=none;align=center;verticalAlign=middle;whiteSpace=wrap;rounded=0;fontFamily=Courier New;fontSize=10;" parent="1" vertex="1">
          <mxGeometry x="1460" y="209" width="47" height="8" as="geometry" />
        </mxCell>
        <mxCell id="93PRhCsBqD0tyr6pIOzv-182" value="" style="endArrow=classic;html=1;rounded=0;entryX=0.25;entryY=0;entryDx=0;entryDy=0;" parent="1" target="93PRhCsBqD0tyr6pIOzv-167" edge="1">
          <mxGeometry width="50" height="50" relative="1" as="geometry">
            <mxPoint x="1460" y="689.85" as="sourcePoint" />
            <mxPoint x="1520" y="580" as="targetPoint" />
            <Array as="points">
              <mxPoint x="1500" y="690" />
              <mxPoint x="1500" y="530" />
            </Array>
          </mxGeometry>
        </mxCell>
        <mxCell id="93PRhCsBqD0tyr6pIOzv-183" value="pc4W" style="text;html=1;strokeColor=none;fillColor=none;align=center;verticalAlign=middle;whiteSpace=wrap;rounded=0;fontFamily=Courier New;fontSize=10;" parent="1" vertex="1">
          <mxGeometry x="1460" y="680" width="30" height="6.85" as="geometry" />
        </mxCell>
        <mxCell id="93PRhCsBqD0tyr6pIOzv-187" value="" style="endArrow=classic;html=1;rounded=0;exitX=1;exitY=0.88;exitDx=0;exitDy=0;exitPerimeter=0;" parent="1" source="93PRhCsBqD0tyr6pIOzv-146" edge="1">
          <mxGeometry width="50" height="50" relative="1" as="geometry">
            <mxPoint x="1470" y="640" as="sourcePoint" />
            <mxPoint x="544.92" y="590" as="targetPoint" />
            <Array as="points">
              <mxPoint x="1510" y="640" />
              <mxPoint x="1510" y="710" />
              <mxPoint x="545" y="710" />
            </Array>
          </mxGeometry>
        </mxCell>
        <mxCell id="93PRhCsBqD0tyr6pIOzv-188" value="wb_data" style="text;html=1;strokeColor=none;fillColor=none;align=center;verticalAlign=middle;whiteSpace=wrap;rounded=0;fontFamily=Courier New;fontSize=10;" parent="1" vertex="1">
          <mxGeometry x="1560" y="492.5" width="50" height="15" as="geometry" />
        </mxCell>
        <mxCell id="93PRhCsBqD0tyr6pIOzv-189" value="rd_wrenW" style="text;html=1;strokeColor=none;fillColor=none;align=center;verticalAlign=middle;whiteSpace=wrap;rounded=0;fontFamily=Courier New;fontSize=10;" parent="1" vertex="1">
          <mxGeometry x="1460" y="349" width="47" height="8" as="geometry" />
        </mxCell>
        <mxCell id="93PRhCsBqD0tyr6pIOzv-190" value="rd_addrW" style="text;html=1;strokeColor=none;fillColor=none;align=center;verticalAlign=middle;whiteSpace=wrap;rounded=0;fontFamily=Courier New;fontSize=10;" parent="1" vertex="1">
          <mxGeometry x="1460" y="710" width="50" height="13" as="geometry" />
        </mxCell>
        <mxCell id="93PRhCsBqD0tyr6pIOzv-191" value="" style="endArrow=classic;html=1;rounded=0;" parent="1" edge="1">
          <mxGeometry width="50" height="50" relative="1" as="geometry">
            <mxPoint x="760" y="379.83" as="sourcePoint" />
            <mxPoint x="100" y="550" as="targetPoint" />
            <Array as="points">
              <mxPoint x="820" y="380" />
              <mxPoint x="820" y="170" />
              <mxPoint x="100" y="170" />
            </Array>
          </mxGeometry>
        </mxCell>
        <mxCell id="93PRhCsBqD0tyr6pIOzv-192" value="br_selE" style="text;html=1;strokeColor=none;fillColor=none;align=center;verticalAlign=middle;whiteSpace=wrap;rounded=0;fontFamily=Courier New;fontSize=10;" parent="1" vertex="1">
          <mxGeometry x="760" y="369" width="47.5" height="8" as="geometry" />
        </mxCell>
        <mxCell id="93PRhCsBqD0tyr6pIOzv-196" value="" style="endArrow=classic;html=1;rounded=0;entryX=0.688;entryY=1;entryDx=0;entryDy=0;entryPerimeter=0;" parent="1" target="Y1rLu_RjyALBYwUzoZZm-1" edge="1">
          <mxGeometry width="50" height="50" relative="1" as="geometry">
            <mxPoint x="1140" y="490" as="sourcePoint" />
            <mxPoint x="60" y="560" as="targetPoint" />
            <Array as="points">
              <mxPoint x="1140" y="720" />
              <mxPoint x="60" y="720" />
              <mxPoint x="60" y="565" />
            </Array>
          </mxGeometry>
        </mxCell>
        <mxCell id="93PRhCsBqD0tyr6pIOzv-197" value="" style="ellipse;whiteSpace=wrap;html=1;fillColor=#000000;aspect=fixed;" parent="1" vertex="1">
          <mxGeometry x="1138" y="488" width="4" height="4" as="geometry" />
        </mxCell>
        <mxCell id="cbddjr-EKUgRZxBoKyHE-1" value="" style="group" parent="1" vertex="1" connectable="0">
          <mxGeometry x="909" y="440" width="10" height="50" as="geometry" />
        </mxCell>
        <mxCell id="cbddjr-EKUgRZxBoKyHE-2" value="" style="verticalLabelPosition=middle;verticalAlign=middle;html=1;shape=trapezoid;perimeter=trapezoidPerimeter;whiteSpace=wrap;size=0.23;arcSize=10;flipV=1;labelPosition=center;align=center;rotation=-90;" parent="cbddjr-EKUgRZxBoKyHE-1" vertex="1">
          <mxGeometry x="-15" y="18.75" width="40" height="12.5" as="geometry" />
        </mxCell>
        <mxCell id="cbddjr-EKUgRZxBoKyHE-4" value="0" style="text;html=1;strokeColor=none;fillColor=none;align=center;verticalAlign=middle;whiteSpace=wrap;rounded=0;fontFamily=Courier New;fontSize=10;" parent="cbddjr-EKUgRZxBoKyHE-1" vertex="1">
          <mxGeometry x="3.75" y="12.5" width="2.5" height="6.25" as="geometry" />
        </mxCell>
        <mxCell id="cbddjr-EKUgRZxBoKyHE-5" value="1" style="text;html=1;strokeColor=none;fillColor=none;align=center;verticalAlign=middle;whiteSpace=wrap;rounded=0;fontFamily=Courier New;fontSize=10;" parent="cbddjr-EKUgRZxBoKyHE-1" vertex="1">
          <mxGeometry x="3.75" y="21.875" width="2.5" height="6.25" as="geometry" />
        </mxCell>
        <mxCell id="cbddjr-EKUgRZxBoKyHE-6" value="2" style="text;html=1;strokeColor=none;fillColor=none;align=center;verticalAlign=middle;whiteSpace=wrap;rounded=0;fontFamily=Courier New;fontSize=10;" parent="cbddjr-EKUgRZxBoKyHE-1" vertex="1">
          <mxGeometry x="3.75" y="31.25" width="2.5" height="6.25" as="geometry" />
        </mxCell>
        <mxCell id="cbddjr-EKUgRZxBoKyHE-7" value="" style="endArrow=classic;html=1;rounded=0;entryX=0.833;entryY=1;entryDx=0;entryDy=0;entryPerimeter=0;" parent="1" edge="1">
          <mxGeometry width="50" height="50" relative="1" as="geometry">
            <mxPoint x="920" y="465.00000000000006" as="sourcePoint" />
            <mxPoint x="940" y="465.00000000000006" as="targetPoint" />
          </mxGeometry>
        </mxCell>
        <mxCell id="cbddjr-EKUgRZxBoKyHE-13" value="" style="group" parent="1" vertex="1" connectable="0">
          <mxGeometry x="949" y="485" width="30" height="50" as="geometry" />
        </mxCell>
        <mxCell id="cbddjr-EKUgRZxBoKyHE-14" value="" style="verticalLabelPosition=middle;verticalAlign=middle;html=1;shape=trapezoid;perimeter=trapezoidPerimeter;whiteSpace=wrap;size=0.23;arcSize=10;flipV=1;labelPosition=center;align=center;rotation=-90;" parent="cbddjr-EKUgRZxBoKyHE-13" vertex="1">
          <mxGeometry x="-20" y="23.75" width="50" height="12.5" as="geometry" />
        </mxCell>
        <mxCell id="cbddjr-EKUgRZxBoKyHE-15" value="0" style="text;html=1;strokeColor=none;fillColor=none;align=center;verticalAlign=middle;whiteSpace=wrap;rounded=0;fontFamily=Courier New;fontSize=10;" parent="cbddjr-EKUgRZxBoKyHE-13" vertex="1">
          <mxGeometry x="3.75" y="12.5" width="2.5" height="6.25" as="geometry" />
        </mxCell>
        <mxCell id="cbddjr-EKUgRZxBoKyHE-16" value="1" style="text;html=1;strokeColor=none;fillColor=none;align=center;verticalAlign=middle;whiteSpace=wrap;rounded=0;fontFamily=Courier New;fontSize=10;" parent="cbddjr-EKUgRZxBoKyHE-13" vertex="1">
          <mxGeometry x="3.75" y="21.875" width="2.5" height="6.25" as="geometry" />
        </mxCell>
        <mxCell id="cbddjr-EKUgRZxBoKyHE-17" value="2" style="text;html=1;strokeColor=none;fillColor=none;align=center;verticalAlign=middle;whiteSpace=wrap;rounded=0;fontFamily=Courier New;fontSize=10;" parent="cbddjr-EKUgRZxBoKyHE-13" vertex="1">
          <mxGeometry x="3.75" y="31.25" width="2.5" height="6.25" as="geometry" />
        </mxCell>
        <mxCell id="VXtDHCYK9saSplOccG33-1" value="3" style="text;html=1;strokeColor=none;fillColor=none;align=center;verticalAlign=middle;whiteSpace=wrap;rounded=0;fontFamily=Courier New;fontSize=10;" parent="cbddjr-EKUgRZxBoKyHE-13" vertex="1">
          <mxGeometry x="3.75" y="40" width="2.5" height="6.25" as="geometry" />
        </mxCell>
        <mxCell id="eolAdTWkz6nV8UobAQ28-1" value="" style="endArrow=classic;html=1;rounded=0;entryX=0.5;entryY=0;entryDx=0;entryDy=0;" parent="1" target="cbddjr-EKUgRZxBoKyHE-2" edge="1">
          <mxGeometry width="50" height="50" relative="1" as="geometry">
            <mxPoint x="1265" y="490" as="sourcePoint" />
            <mxPoint x="900" y="470" as="targetPoint" />
            <Array as="points">
              <mxPoint x="1265" y="730" />
              <mxPoint x="890" y="730" />
              <mxPoint x="890" y="465" />
            </Array>
          </mxGeometry>
        </mxCell>
        <mxCell id="eolAdTWkz6nV8UobAQ28-2" value="" style="ellipse;whiteSpace=wrap;html=1;fillColor=#000000;aspect=fixed;" parent="1" vertex="1">
          <mxGeometry x="1263" y="488" width="4" height="4" as="geometry" />
        </mxCell>
        <mxCell id="eolAdTWkz6nV8UobAQ28-3" value="" style="endArrow=classic;html=1;rounded=0;entryX=0.6;entryY=0.995;entryDx=0;entryDy=0;entryPerimeter=0;" parent="1" target="cbddjr-EKUgRZxBoKyHE-14" edge="1">
          <mxGeometry width="50" height="50" relative="1" as="geometry">
            <mxPoint x="890" y="510" as="sourcePoint" />
            <mxPoint x="940" y="515" as="targetPoint" />
          </mxGeometry>
        </mxCell>
        <mxCell id="eolAdTWkz6nV8UobAQ28-4" value="" style="ellipse;whiteSpace=wrap;html=1;fillColor=#000000;aspect=fixed;" parent="1" vertex="1">
          <mxGeometry x="888" y="508" width="4" height="4" as="geometry" />
        </mxCell>
        <mxCell id="eolAdTWkz6nV8UobAQ28-5" value="" style="endArrow=classic;html=1;rounded=0;entryX=0.4;entryY=1.001;entryDx=0;entryDy=0;entryPerimeter=0;" parent="1" target="cbddjr-EKUgRZxBoKyHE-14" edge="1">
          <mxGeometry width="50" height="50" relative="1" as="geometry">
            <mxPoint x="870" y="180" as="sourcePoint" />
            <mxPoint x="940" y="525" as="targetPoint" />
            <Array as="points">
              <mxPoint x="870" y="520" />
            </Array>
          </mxGeometry>
        </mxCell>
        <mxCell id="eolAdTWkz6nV8UobAQ28-6" value="" style="ellipse;whiteSpace=wrap;html=1;fillColor=#000000;aspect=fixed;" parent="1" vertex="1">
          <mxGeometry x="868" y="178" width="4" height="4" as="geometry" />
        </mxCell>
        <mxCell id="eolAdTWkz6nV8UobAQ28-7" value="" style="endArrow=classic;html=1;rounded=0;entryX=0.25;entryY=0;entryDx=0;entryDy=0;" parent="1" target="cbddjr-EKUgRZxBoKyHE-2" edge="1">
          <mxGeometry width="50" height="50" relative="1" as="geometry">
            <mxPoint x="870" y="475" as="sourcePoint" />
            <mxPoint x="902.25" y="480.08" as="targetPoint" />
          </mxGeometry>
        </mxCell>
        <mxCell id="eolAdTWkz6nV8UobAQ28-8" value="" style="ellipse;whiteSpace=wrap;html=1;fillColor=#000000;aspect=fixed;" parent="1" vertex="1">
          <mxGeometry x="868" y="473" width="4" height="4" as="geometry" />
        </mxCell>
        <mxCell id="eolAdTWkz6nV8UobAQ28-11" value="" style="group" parent="1" vertex="1" connectable="0">
          <mxGeometry x="320" y="800" width="1240" height="40" as="geometry" />
        </mxCell>
        <mxCell id="eolAdTWkz6nV8UobAQ28-9" value="" style="rounded=0;whiteSpace=wrap;html=1;fillColor=#ffff88;strokeColor=#36393d;" parent="eolAdTWkz6nV8UobAQ28-11" vertex="1">
          <mxGeometry width="1240" height="40" as="geometry" />
        </mxCell>
        <mxCell id="eolAdTWkz6nV8UobAQ28-10" value="Hazard Unit" style="text;html=1;strokeColor=none;fillColor=none;align=center;verticalAlign=middle;whiteSpace=wrap;rounded=0;fontFamily=Courier New;fontSize=20;" parent="eolAdTWkz6nV8UobAQ28-11" vertex="1">
          <mxGeometry x="545.219298245614" y="12.5" width="149.56140350877195" height="15" as="geometry" />
        </mxCell>
        <mxCell id="eolAdTWkz6nV8UobAQ28-12" value="" style="endArrow=classic;html=1;rounded=0;entryX=0;entryY=0.5;entryDx=0;entryDy=0;" parent="1" target="cbddjr-EKUgRZxBoKyHE-14" edge="1">
          <mxGeometry width="50" height="50" relative="1" as="geometry">
            <mxPoint x="954" y="800" as="sourcePoint" />
            <mxPoint x="954" y="550" as="targetPoint" />
          </mxGeometry>
        </mxCell>
        <mxCell id="eolAdTWkz6nV8UobAQ28-13" value="" style="endArrow=classic;html=1;rounded=0;entryX=0.5;entryY=1;entryDx=0;entryDy=0;" parent="1" target="eolAdTWkz6nV8UobAQ28-16" edge="1">
          <mxGeometry width="50" height="50" relative="1" as="geometry">
            <mxPoint x="339.94" y="800" as="sourcePoint" />
            <mxPoint x="339.94" y="760" as="targetPoint" />
          </mxGeometry>
        </mxCell>
        <mxCell id="eolAdTWkz6nV8UobAQ28-14" value="forward2sel" style="text;html=1;strokeColor=none;fillColor=none;align=center;verticalAlign=middle;whiteSpace=wrap;rounded=0;fontFamily=Courier New;fontSize=10;rotation=90;" parent="1" vertex="1">
          <mxGeometry x="926" y="763" width="65" height="8" as="geometry" />
        </mxCell>
        <mxCell id="eolAdTWkz6nV8UobAQ28-15" value="forward1sel" style="text;html=1;strokeColor=none;fillColor=none;align=center;verticalAlign=middle;whiteSpace=wrap;rounded=0;fontFamily=Courier New;fontSize=10;rotation=90;" parent="1" vertex="1">
          <mxGeometry x="886" y="763" width="65" height="8" as="geometry" />
        </mxCell>
        <mxCell id="eolAdTWkz6nV8UobAQ28-21" value="" style="endArrow=classic;html=1;rounded=0;" parent="1" edge="1">
          <mxGeometry width="50" height="50" relative="1" as="geometry">
            <mxPoint x="740" y="799.8611111111111" as="sourcePoint" />
            <mxPoint x="740.14" y="700" as="targetPoint" />
          </mxGeometry>
        </mxCell>
        <mxCell id="eolAdTWkz6nV8UobAQ28-22" value="flushE" style="text;html=1;strokeColor=none;fillColor=none;align=center;verticalAlign=middle;whiteSpace=wrap;rounded=0;fontFamily=Courier New;fontSize=10;rotation=90;" parent="1" vertex="1">
          <mxGeometry x="725" y="776" width="39.5" height="8" as="geometry" />
        </mxCell>
        <mxCell id="eolAdTWkz6nV8UobAQ28-26" value="flushD" style="text;html=1;strokeColor=none;fillColor=none;align=center;verticalAlign=middle;whiteSpace=wrap;rounded=0;fontFamily=Courier New;fontSize=10;rotation=90;" parent="1" vertex="1">
          <mxGeometry x="325" y="776" width="39.5" height="8" as="geometry" />
        </mxCell>
        <mxCell id="eolAdTWkz6nV8UobAQ28-27" value="" style="endArrow=classic;html=1;rounded=0;" parent="1" edge="1">
          <mxGeometry width="50" height="50" relative="1" as="geometry">
            <mxPoint x="914" y="800" as="sourcePoint" />
            <mxPoint x="914" y="480" as="targetPoint" />
          </mxGeometry>
        </mxCell>
        <mxCell id="eolAdTWkz6nV8UobAQ28-29" value="" style="endArrow=classic;html=1;rounded=0;" parent="1" edge="1">
          <mxGeometry width="50" height="50" relative="1" as="geometry">
            <mxPoint x="820" y="380" as="sourcePoint" />
            <mxPoint x="820" y="800.08" as="targetPoint" />
          </mxGeometry>
        </mxCell>
        <mxCell id="eolAdTWkz6nV8UobAQ28-30" value="" style="ellipse;whiteSpace=wrap;html=1;fillColor=#000000;aspect=fixed;" parent="1" vertex="1">
          <mxGeometry x="818" y="378" width="4" height="4" as="geometry" />
        </mxCell>
        <mxCell id="eolAdTWkz6nV8UobAQ28-31" value="" style="endArrow=classic;html=1;rounded=0;entryX=0.75;entryY=0;entryDx=0;entryDy=0;exitX=0.5;exitY=1;exitDx=0;exitDy=0;" parent="1" source="cbddjr-EKUgRZxBoKyHE-14" target="93PRhCsBqD0tyr6pIOzv-11" edge="1">
          <mxGeometry width="50" height="50" relative="1" as="geometry">
            <mxPoint x="965" y="515" as="sourcePoint" />
            <mxPoint x="970" y="490" as="targetPoint" />
            <Array as="points">
              <mxPoint x="965" y="515" />
              <mxPoint x="965" y="498" />
            </Array>
          </mxGeometry>
        </mxCell>
        <mxCell id="eolAdTWkz6nV8UobAQ28-35" value="" style="endArrow=classic;html=1;rounded=0;exitX=1;exitY=1;exitDx=0;exitDy=0;" parent="1" edge="1">
          <mxGeometry width="50" height="50" relative="1" as="geometry">
            <mxPoint x="1251" y="640" as="sourcePoint" />
            <mxPoint x="1251" y="800" as="targetPoint" />
          </mxGeometry>
        </mxCell>
        <mxCell id="eolAdTWkz6nV8UobAQ28-36" value="" style="ellipse;whiteSpace=wrap;html=1;fillColor=#000000;aspect=fixed;" parent="1" vertex="1">
          <mxGeometry x="1249" y="638" width="4" height="4" as="geometry" />
        </mxCell>
        <mxCell id="eolAdTWkz6nV8UobAQ28-37" value="" style="endArrow=classic;html=1;rounded=0;" parent="1" edge="1">
          <mxGeometry width="50" height="50" relative="1" as="geometry">
            <mxPoint x="1440" y="710" as="sourcePoint" />
            <mxPoint x="1440" y="800" as="targetPoint" />
          </mxGeometry>
        </mxCell>
        <mxCell id="eolAdTWkz6nV8UobAQ28-38" value="" style="ellipse;whiteSpace=wrap;html=1;fillColor=#000000;aspect=fixed;" parent="1" vertex="1">
          <mxGeometry x="1438" y="708" width="4" height="4" as="geometry" />
        </mxCell>
        <mxCell id="eolAdTWkz6nV8UobAQ28-44" value="" style="endArrow=classic;html=1;rounded=0;" parent="1" edge="1">
          <mxGeometry width="50" height="50" relative="1" as="geometry">
            <mxPoint x="1540" y="360" as="sourcePoint" />
            <mxPoint x="1550" y="800" as="targetPoint" />
            <Array as="points">
              <mxPoint x="1550" y="360" />
            </Array>
          </mxGeometry>
        </mxCell>
        <mxCell id="eolAdTWkz6nV8UobAQ28-45" value="" style="ellipse;whiteSpace=wrap;html=1;fillColor=#000000;aspect=fixed;" parent="1" vertex="1">
          <mxGeometry x="1537.5" y="358" width="5" height="5" as="geometry" />
        </mxCell>
        <mxCell id="eolAdTWkz6nV8UobAQ28-46" value="" style="endArrow=classic;html=1;rounded=0;" parent="1" edge="1">
          <mxGeometry width="50" height="50" relative="1" as="geometry">
            <mxPoint x="1408" y="360" as="sourcePoint" />
            <mxPoint x="1408" y="800" as="targetPoint" />
          </mxGeometry>
        </mxCell>
        <mxCell id="eolAdTWkz6nV8UobAQ28-47" value="" style="ellipse;whiteSpace=wrap;html=1;fillColor=#000000;aspect=fixed;" parent="1" vertex="1">
          <mxGeometry x="1406" y="358" width="4" height="4" as="geometry" />
        </mxCell>
        <mxCell id="ZzyhjnianzOxExWq9pqv-1" value="" style="endArrow=classic;html=1;rounded=0;entryX=-0.004;entryY=0.79;entryDx=0;entryDy=0;entryPerimeter=0;" parent="1" target="93PRhCsBqD0tyr6pIOzv-56" edge="1">
          <mxGeometry width="50" height="50" relative="1" as="geometry">
            <mxPoint x="850" y="540" as="sourcePoint" />
            <mxPoint x="1130" y="595" as="targetPoint" />
            <Array as="points">
              <mxPoint x="850" y="595" />
            </Array>
          </mxGeometry>
        </mxCell>
        <mxCell id="ZzyhjnianzOxExWq9pqv-2" value="" style="ellipse;whiteSpace=wrap;html=1;fillColor=#000000;aspect=fixed;" parent="1" vertex="1">
          <mxGeometry x="848" y="537.5" width="4" height="4" as="geometry" />
        </mxCell>
        <mxCell id="ZzyhjnianzOxExWq9pqv-3" value="" style="group" parent="1" vertex="1" connectable="0">
          <mxGeometry x="546" y="395" width="10" height="50" as="geometry" />
        </mxCell>
        <mxCell id="ZzyhjnianzOxExWq9pqv-4" value="" style="verticalLabelPosition=middle;verticalAlign=middle;html=1;shape=trapezoid;perimeter=trapezoidPerimeter;whiteSpace=wrap;size=0.23;arcSize=10;flipV=1;labelPosition=center;align=center;rotation=90;" parent="ZzyhjnianzOxExWq9pqv-3" vertex="1">
          <mxGeometry x="-15" y="18.75" width="40" height="12.5" as="geometry" />
        </mxCell>
        <mxCell id="ZzyhjnianzOxExWq9pqv-5" value="0" style="text;html=1;strokeColor=none;fillColor=none;align=center;verticalAlign=middle;whiteSpace=wrap;rounded=0;fontFamily=Courier New;fontSize=10;" parent="ZzyhjnianzOxExWq9pqv-3" vertex="1">
          <mxGeometry x="3.75" y="12.5" width="2.5" height="6.25" as="geometry" />
        </mxCell>
        <mxCell id="ZzyhjnianzOxExWq9pqv-6" value="1" style="text;html=1;strokeColor=none;fillColor=none;align=center;verticalAlign=middle;whiteSpace=wrap;rounded=0;fontFamily=Courier New;fontSize=10;" parent="ZzyhjnianzOxExWq9pqv-3" vertex="1">
          <mxGeometry x="3.75" y="21.875" width="2.5" height="6.25" as="geometry" />
        </mxCell>
        <mxCell id="ZzyhjnianzOxExWq9pqv-7" value="2" style="text;html=1;strokeColor=none;fillColor=none;align=center;verticalAlign=middle;whiteSpace=wrap;rounded=0;fontFamily=Courier New;fontSize=10;" parent="ZzyhjnianzOxExWq9pqv-3" vertex="1">
          <mxGeometry x="3.75" y="31.25" width="2.5" height="6.25" as="geometry" />
        </mxCell>
        <mxCell id="ZzyhjnianzOxExWq9pqv-8" value="" style="group" parent="1" vertex="1" connectable="0">
          <mxGeometry x="571" y="430" width="10" height="50" as="geometry" />
        </mxCell>
        <mxCell id="ZzyhjnianzOxExWq9pqv-9" value="" style="verticalLabelPosition=middle;verticalAlign=middle;html=1;shape=trapezoid;perimeter=trapezoidPerimeter;whiteSpace=wrap;size=0.23;arcSize=10;flipV=1;labelPosition=center;align=center;rotation=90;" parent="ZzyhjnianzOxExWq9pqv-8" vertex="1">
          <mxGeometry x="-15" y="18.75" width="40" height="12.5" as="geometry" />
        </mxCell>
        <mxCell id="ZzyhjnianzOxExWq9pqv-10" value="0" style="text;html=1;strokeColor=none;fillColor=none;align=center;verticalAlign=middle;whiteSpace=wrap;rounded=0;fontFamily=Courier New;fontSize=10;" parent="ZzyhjnianzOxExWq9pqv-8" vertex="1">
          <mxGeometry x="3.75" y="12.5" width="2.5" height="6.25" as="geometry" />
        </mxCell>
        <mxCell id="ZzyhjnianzOxExWq9pqv-11" value="1" style="text;html=1;strokeColor=none;fillColor=none;align=center;verticalAlign=middle;whiteSpace=wrap;rounded=0;fontFamily=Courier New;fontSize=10;" parent="ZzyhjnianzOxExWq9pqv-8" vertex="1">
          <mxGeometry x="3.75" y="21.875" width="2.5" height="6.25" as="geometry" />
        </mxCell>
        <mxCell id="ZzyhjnianzOxExWq9pqv-12" value="2" style="text;html=1;strokeColor=none;fillColor=none;align=center;verticalAlign=middle;whiteSpace=wrap;rounded=0;fontFamily=Courier New;fontSize=10;" parent="ZzyhjnianzOxExWq9pqv-8" vertex="1">
          <mxGeometry x="3.75" y="31.25" width="2.5" height="6.25" as="geometry" />
        </mxCell>
        <mxCell id="ZzyhjnianzOxExWq9pqv-13" value="" style="endArrow=classic;html=1;rounded=0;exitX=0.5;exitY=1;exitDx=0;exitDy=0;" parent="1" source="ZzyhjnianzOxExWq9pqv-4" edge="1">
          <mxGeometry width="50" height="50" relative="1" as="geometry">
            <mxPoint x="520" y="415" as="sourcePoint" />
            <mxPoint x="500" y="425" as="targetPoint" />
            <Array as="points">
              <mxPoint x="515" y="420" />
              <mxPoint x="515" y="425" />
            </Array>
          </mxGeometry>
        </mxCell>
        <mxCell id="ZzyhjnianzOxExWq9pqv-14" value="" style="endArrow=classic;html=1;rounded=0;exitX=0.5;exitY=1;exitDx=0;exitDy=0;" parent="1" source="ZzyhjnianzOxExWq9pqv-9" edge="1">
          <mxGeometry width="50" height="50" relative="1" as="geometry">
            <mxPoint x="545" y="450" as="sourcePoint" />
            <mxPoint x="500" y="445" as="targetPoint" />
            <Array as="points">
              <mxPoint x="515" y="455" />
              <mxPoint x="515" y="445" />
            </Array>
          </mxGeometry>
        </mxCell>
        <mxCell id="ZzyhjnianzOxExWq9pqv-15" value="" style="endArrow=classic;html=1;rounded=0;entryX=0.75;entryY=0;entryDx=0;entryDy=0;" parent="1" target="ZzyhjnianzOxExWq9pqv-9" edge="1">
          <mxGeometry width="50" height="50" relative="1" as="geometry">
            <mxPoint x="1200" y="594.92" as="sourcePoint" />
            <mxPoint x="610" y="450" as="targetPoint" />
            <Array as="points">
              <mxPoint x="1270" y="595" />
              <mxPoint x="1270" y="160" />
              <mxPoint x="680" y="160" />
              <mxPoint x="680" y="465" />
            </Array>
          </mxGeometry>
        </mxCell>
        <mxCell id="ZzyhjnianzOxExWq9pqv-16" value="rs1_dataM" style="text;html=1;strokeColor=none;fillColor=none;align=center;verticalAlign=middle;whiteSpace=wrap;rounded=0;fontFamily=Courier New;fontSize=10;" parent="1" vertex="1">
          <mxGeometry x="1200" y="580" width="60" height="15" as="geometry" />
        </mxCell>
        <mxCell id="ZzyhjnianzOxExWq9pqv-17" value="" style="endArrow=classic;html=1;rounded=0;entryX=0.75;entryY=0;entryDx=0;entryDy=0;exitX=0;exitY=1;exitDx=0;exitDy=0;" parent="1" source="93PRhCsBqD0tyr6pIOzv-103" target="ZzyhjnianzOxExWq9pqv-4" edge="1">
          <mxGeometry width="50" height="50" relative="1" as="geometry">
            <mxPoint x="1235" y="545" as="sourcePoint" />
            <mxPoint x="567" y="425" as="targetPoint" />
            <Array as="points">
              <mxPoint x="1240" y="580" />
              <mxPoint x="1260" y="580" />
              <mxPoint x="1260" y="150" />
              <mxPoint x="670" y="150" />
              <mxPoint x="670" y="430" />
            </Array>
          </mxGeometry>
        </mxCell>
        <mxCell id="ZzyhjnianzOxExWq9pqv-19" value="" style="endArrow=classic;html=1;rounded=0;entryX=0.5;entryY=0;entryDx=0;entryDy=0;" parent="1" target="ZzyhjnianzOxExWq9pqv-9" edge="1">
          <mxGeometry width="50" height="50" relative="1" as="geometry">
            <mxPoint x="850" y="455" as="sourcePoint" />
            <mxPoint x="585" y="450" as="targetPoint" />
            <Array as="points">
              <mxPoint x="850" y="140" />
              <mxPoint x="645" y="140" />
              <mxPoint x="645" y="455" />
            </Array>
          </mxGeometry>
        </mxCell>
        <mxCell id="ZzyhjnianzOxExWq9pqv-20" value="" style="ellipse;whiteSpace=wrap;html=1;fillColor=#000000;aspect=fixed;" parent="1" vertex="1">
          <mxGeometry x="848" y="453" width="4" height="4" as="geometry" />
        </mxCell>
        <mxCell id="ZzyhjnianzOxExWq9pqv-22" value="" style="endArrow=classic;html=1;rounded=0;entryX=0.5;entryY=0;entryDx=0;entryDy=0;" parent="1" target="ZzyhjnianzOxExWq9pqv-4" edge="1">
          <mxGeometry width="50" height="50" relative="1" as="geometry">
            <mxPoint x="860" y="505" as="sourcePoint" />
            <mxPoint x="567" y="420" as="targetPoint" />
            <Array as="points">
              <mxPoint x="860" y="130" />
              <mxPoint x="635" y="130" />
              <mxPoint x="635" y="420" />
            </Array>
          </mxGeometry>
        </mxCell>
        <mxCell id="ZzyhjnianzOxExWq9pqv-23" value="" style="ellipse;whiteSpace=wrap;html=1;fillColor=#000000;aspect=fixed;" parent="1" vertex="1">
          <mxGeometry x="858" y="498" width="4" height="4" as="geometry" />
        </mxCell>
        <mxCell id="ZzyhjnianzOxExWq9pqv-24" value="" style="endArrow=classic;html=1;rounded=0;" parent="1" edge="1">
          <mxGeometry width="50" height="50" relative="1" as="geometry">
            <mxPoint x="635" y="600" as="sourcePoint" />
            <mxPoint x="635" y="800" as="targetPoint" />
          </mxGeometry>
        </mxCell>
        <mxCell id="ZzyhjnianzOxExWq9pqv-25" value="" style="ellipse;whiteSpace=wrap;html=1;fillColor=#000000;aspect=fixed;" parent="1" vertex="1">
          <mxGeometry x="633" y="597.5" width="4" height="4" as="geometry" />
        </mxCell>
        <mxCell id="ZzyhjnianzOxExWq9pqv-26" value="" style="endArrow=classic;html=1;rounded=0;" parent="1" edge="1">
          <mxGeometry width="50" height="50" relative="1" as="geometry">
            <mxPoint x="655" y="620" as="sourcePoint" />
            <mxPoint x="655" y="800" as="targetPoint" />
          </mxGeometry>
        </mxCell>
        <mxCell id="ZzyhjnianzOxExWq9pqv-27" value="" style="ellipse;whiteSpace=wrap;html=1;fillColor=#000000;aspect=fixed;" parent="1" vertex="1">
          <mxGeometry x="653" y="618" width="4" height="4" as="geometry" />
        </mxCell>
        <mxCell id="ZzyhjnianzOxExWq9pqv-28" value="" style="endArrow=classic;html=1;rounded=0;" parent="1" edge="1">
          <mxGeometry width="50" height="50" relative="1" as="geometry">
            <mxPoint x="880" y="640" as="sourcePoint" />
            <mxPoint x="880" y="799.78" as="targetPoint" />
          </mxGeometry>
        </mxCell>
        <mxCell id="ZzyhjnianzOxExWq9pqv-29" value="" style="ellipse;whiteSpace=wrap;html=1;fillColor=#000000;aspect=fixed;" parent="1" vertex="1">
          <mxGeometry x="878" y="637.78" width="4" height="4" as="geometry" />
        </mxCell>
        <mxCell id="ZzyhjnianzOxExWq9pqv-30" value="" style="endArrow=classic;html=1;rounded=0;" parent="1" edge="1">
          <mxGeometry width="50" height="50" relative="1" as="geometry">
            <mxPoint x="320" y="810" as="sourcePoint" />
            <mxPoint x="550" y="405" as="targetPoint" />
            <Array as="points">
              <mxPoint x="50" y="810" />
              <mxPoint x="50" y="160" />
              <mxPoint x="550" y="160" />
            </Array>
          </mxGeometry>
        </mxCell>
        <mxCell id="ZzyhjnianzOxExWq9pqv-32" value="" style="endArrow=classic;html=1;rounded=0;" parent="1" edge="1">
          <mxGeometry width="50" height="50" relative="1" as="geometry">
            <mxPoint x="320" y="830" as="sourcePoint" />
            <mxPoint x="575" y="440" as="targetPoint" />
            <Array as="points">
              <mxPoint x="40" y="830" />
              <mxPoint x="40" y="150" />
              <mxPoint x="575" y="150" />
            </Array>
          </mxGeometry>
        </mxCell>
        <mxCell id="ZzyhjnianzOxExWq9pqv-33" value="rs1d_sel" style="text;html=1;strokeColor=none;fillColor=none;align=center;verticalAlign=middle;whiteSpace=wrap;rounded=0;fontFamily=Courier New;fontSize=10;" parent="1" vertex="1">
          <mxGeometry x="270" y="816" width="50" height="14" as="geometry" />
        </mxCell>
        <mxCell id="ZzyhjnianzOxExWq9pqv-34" value="rs2d_sel" style="text;html=1;strokeColor=none;fillColor=none;align=center;verticalAlign=middle;whiteSpace=wrap;rounded=0;fontFamily=Courier New;fontSize=10;" parent="1" vertex="1">
          <mxGeometry x="270" y="796" width="50" height="14" as="geometry" />
        </mxCell>
        <mxCell id="XxhCjuFnlVh7mt_4GWb8-1" value="" style="endArrow=classic;html=1;rounded=0;" parent="1" edge="1">
          <mxGeometry width="50" height="50" relative="1" as="geometry">
            <mxPoint x="1030" y="360" as="sourcePoint" />
            <mxPoint x="1030" y="800" as="targetPoint" />
          </mxGeometry>
        </mxCell>
        <mxCell id="XxhCjuFnlVh7mt_4GWb8-2" value="" style="ellipse;whiteSpace=wrap;html=1;fillColor=#000000;aspect=fixed;" parent="1" vertex="1">
          <mxGeometry x="1028" y="358" width="4" height="4" as="geometry" />
        </mxCell>
        <mxCell id="8uZCJso9WEqKBJ1qdxWW-2" value="" style="endArrow=classic;html=1;rounded=0;entryX=-0.005;entryY=0.72;entryDx=0;entryDy=0;entryPerimeter=0;" parent="1" target="93PRhCsBqD0tyr6pIOzv-56" edge="1">
          <mxGeometry width="50" height="50" relative="1" as="geometry">
            <mxPoint x="965" y="515" as="sourcePoint" />
            <mxPoint x="1125" y="555" as="targetPoint" />
            <Array as="points">
              <mxPoint x="965" y="560" />
            </Array>
          </mxGeometry>
        </mxCell>
        <mxCell id="8uZCJso9WEqKBJ1qdxWW-3" value="" style="ellipse;whiteSpace=wrap;html=1;fillColor=#000000;aspect=fixed;" parent="1" vertex="1">
          <mxGeometry x="963" y="513" width="4" height="4" as="geometry" />
        </mxCell>
        <mxCell id="8uZCJso9WEqKBJ1qdxWW-5" value="forward2outM" style="text;html=1;strokeColor=none;fillColor=none;align=center;verticalAlign=middle;whiteSpace=wrap;rounded=0;fontFamily=Courier New;fontSize=8;" parent="1" vertex="1">
          <mxGeometry x="1200" y="548" width="60" height="12" as="geometry" />
        </mxCell>
        <mxCell id="Bt3a9CaEy_GUD5KeD0kl-4" value="" style="endArrow=classic;html=1;rounded=0;entryX=0.2;entryY=1.002;entryDx=0;entryDy=0;entryPerimeter=0;" parent="1" target="cbddjr-EKUgRZxBoKyHE-14" edge="1">
          <mxGeometry width="50" height="50" relative="1" as="geometry">
            <mxPoint x="1370" y="500" as="sourcePoint" />
            <mxPoint x="930" y="530" as="targetPoint" />
            <Array as="points">
              <mxPoint x="1370" y="705" />
              <mxPoint x="935" y="705" />
              <mxPoint x="935" y="530" />
            </Array>
          </mxGeometry>
        </mxCell>
        <mxCell id="Bt3a9CaEy_GUD5KeD0kl-5" value="" style="ellipse;whiteSpace=wrap;html=1;fillColor=#000000;aspect=fixed;" parent="1" vertex="1">
          <mxGeometry x="1368" y="498" width="4" height="4" as="geometry" />
        </mxCell>
        <mxCell id="Bt3a9CaEy_GUD5KeD0kl-6" value="" style="endArrow=classic;html=1;rounded=0;entryX=0.871;entryY=0.003;entryDx=0;entryDy=0;entryPerimeter=0;" parent="1" target="eolAdTWkz6nV8UobAQ28-9" edge="1">
          <mxGeometry width="50" height="50" relative="1" as="geometry">
            <mxPoint x="1400" y="220.5" as="sourcePoint" />
            <mxPoint x="1400" y="660.5" as="targetPoint" />
          </mxGeometry>
        </mxCell>
        <mxCell id="Bt3a9CaEy_GUD5KeD0kl-7" value="" style="ellipse;whiteSpace=wrap;html=1;fillColor=#000000;aspect=fixed;" parent="1" vertex="1">
          <mxGeometry x="1398" y="218" width="4" height="4" as="geometry" />
        </mxCell>
      </root>
    </mxGraphModel>
  </diagram>
</mxfile>
